<svg viewBox="0.0 0.0 926.0 588.0" fill="none" stroke-linecap="square" stroke-miterlimit="10" xmlns="http://www.w3.org/2000/svg"><clipPath id="a"><path d="M0 0h926v588H0V0z"/></clipPath><g clip-path="url(#a)"><path d="M0 0h926v588H0z"/><path fill="#e4eef3" d="M5 193.196c0-43.059 34.906-77.965 77.965-77.965h759.062a77.965 77.965 0 0 1 77.965 77.965v311.85c0 43.059-34.906 77.965-77.965 77.965H82.965C39.906 583.01 5 548.105 5 505.046z"/><path stroke="#000" stroke-width="2" stroke-linejoin="round" stroke-linecap="butt" d="M5 193.196c0-43.059 34.906-77.965 77.965-77.965h759.062a77.965 77.965 0 0 1 77.965 77.965v311.85c0 43.059-34.906 77.965-77.965 77.965H82.965C39.906 583.01 5 548.105 5 505.046z"/><path fill="#fff2cc" d="M274.101 324.455c0-27.046 21.926-48.972 48.972-48.972h534.655a48.972 48.972 0 0 1 48.972 48.972v195.883c0 27.046-21.926 48.972-48.972 48.972H323.073c-27.046 0-48.972-21.926-48.972-48.972z"/><path stroke="#434343" stroke-width="2" stroke-linejoin="round" stroke-linecap="butt" stroke-dasharray="8.0,6.0" d="M274.101 324.455c0-27.046 21.926-48.972 48.972-48.972h534.655a48.972 48.972 0 0 1 48.972 48.972v195.883c0 27.046-21.926 48.972-48.972 48.972H323.073c-27.046 0-48.972-21.926-48.972-48.972z"/><path fill="#fff2cc" d="M12.104 316.86c0-22.86 18.532-41.392 41.392-41.392H219.06a41.392 41.392 0 0 1 41.392 41.392v211.043c0 22.86-18.532 41.392-41.392 41.392H53.496c-22.86 0-41.392-18.532-41.392-41.392z"/><path stroke="#434343" stroke-width="2" stroke-linejoin="round" stroke-linecap="butt" stroke-dasharray="8.0,6.0" d="M12.104 316.86c0-22.86 18.532-41.392 41.392-41.392H219.06a41.392 41.392 0 0 1 41.392 41.392v211.043c0 22.86-18.532 41.392-41.392 41.392H53.496c-22.86 0-41.392-18.532-41.392-41.392z"/><path fill="#d9ead3" d="M610.864 340.353c0-18.685 15.147-33.833 33.833-33.833h216.712a33.833 33.833 0 0 1 33.833 33.833V475.68c0 18.685-15.147 33.832-33.833 33.832H644.697c-18.685 0-33.833-15.147-33.833-33.832z"/><path stroke="#434343" stroke-width="2" stroke-linejoin="round" stroke-linecap="butt" stroke-dasharray="2.0,6.0" d="M610.864 340.353c0-18.685 15.147-33.833 33.833-33.833h216.712a33.833 33.833 0 0 1 33.833 33.833V475.68c0 18.685-15.147 33.832-33.833 33.832H644.697c-18.685 0-33.833-15.147-33.833-33.832z"/><path fill="#d9ead3" d="M283.964 341.329c0-18.685 15.147-33.833 33.833-33.833h247.862a33.833 33.833 0 0 1 33.832 33.833v135.327c0 18.685-15.147 33.832-33.832 33.832H317.797c-18.686 0-33.833-15.147-33.833-33.832z"/><path stroke="#434343" stroke-width="2" stroke-linejoin="round" stroke-linecap="butt" stroke-dasharray="2.0,6.0" d="M283.964 341.329c0-18.685 15.147-33.833 33.833-33.833h247.862a33.833 33.833 0 0 1 33.832 33.833v135.327c0 18.685-15.147 33.832-33.832 33.832H317.797c-18.686 0-33.833-15.147-33.833-33.832z"/><path fill="#d9ead3" d="M18.085 341.329c0-18.685 15.147-33.833 33.833-33.833h167.39a33.833 33.833 0 0 1 33.832 33.833v135.327c0 18.685-15.147 33.832-33.833 33.832H51.917c-18.685 0-33.832-15.147-33.832-33.832z"/><path stroke="#434343" stroke-width="2" stroke-linejoin="round" stroke-linecap="butt" stroke-dasharray="2.0,6.0" d="M18.085 341.329c0-18.685 15.147-33.833 33.833-33.833h167.39a33.833 33.833 0 0 1 33.832 33.833v135.327c0 18.685-15.147 33.832-33.833 33.832H51.917c-18.685 0-33.832-15.147-33.832-33.832z"/><path d="M53.626 478.295h69.133v36.126H53.626z"/><path fill="#000" d="M62.954 502.655v-1.406l5.859-7.344q.625-.781 1.188-1.36H63.61v-1.343h8.203v1.343l-6.422 7.954-.703.796h7.313v1.36h-9.047zm9.976-4.156q0-2.297 1.281-3.407 1.079-.922 2.61-.922 1.719 0 2.797 1.125 1.093 1.11 1.093 3.094 0 1.594-.484 2.516-.484.922-1.406 1.437-.906.5-2 .5-1.735 0-2.813-1.11-1.078-1.124-1.078-3.233zm1.453 0q0 1.593.688 2.39.703.797 1.75.797 1.047 0 1.734-.797.703-.797.703-2.437 0-1.532-.703-2.328-.687-.797-1.734-.797t-1.75.797q-.688.78-.688 2.375zm7.977 4.156v-8.297h1.266v1.172q.906-1.36 2.64-1.36.75 0 1.375.266t.938.703q.312.438.437 1.047.078.39.078 1.36v5.109h-1.406v-5.047q0-.86-.172-1.281-.156-.438-.578-.688-.406-.25-.969-.25-.906 0-1.562.578-.64.563-.64 2.157v4.53H82.36zm14.57-2.672l1.453.172q-.343 1.281-1.28 1.984-.923.703-2.36.703-1.828 0-2.89-1.125-1.063-1.125-1.063-3.14 0-2.094 1.078-3.25 1.078-1.157 2.797-1.157 1.656 0 2.703 1.141 1.062 1.125 1.062 3.172v.375h-6.187q.078 1.375.765 2.11.703.718 1.735.718.781 0 1.328-.406t.86-1.297zm-4.61-2.281h4.626q-.094-1.047-.531-1.563-.672-.812-1.735-.812-.969 0-1.64.656-.657.64-.72 1.719zm17.688 3.922q-.78.671-1.5.953-.718.265-1.547.265-1.375 0-2.109-.672-.734-.671-.734-1.703 0-.61.281-1.11.281-.515.719-.812.453-.312 1.015-.468.422-.11 1.25-.203 1.703-.204 2.516-.485v-.375q0-.86-.39-1.203-.548-.484-1.61-.484-.984 0-1.469.36-.469.343-.687 1.218l-1.375-.188q.187-.875.61-1.422.437-.546 1.25-.828.812-.297 1.874-.297 1.063 0 1.719.25.672.25.984.625.313.375.438.954.078.359.078 1.296v1.875q0 1.97.078 2.485.094.515.36 1h-1.47q-.218-.438-.28-1.031zm-.109-3.141q-.766.312-2.297.531-.875.125-1.234.281-.36.157-.563.47-.187.296-.187.655 0 .563.422.938.437.375 1.25.375.812 0 1.437-.344.64-.36.938-.984.234-.469.234-1.406v-.516z"/><path d="M346.232 475.213h69.134v36.126h-69.134z"/><path fill="#000" d="M355.56 499.573v-1.406l5.86-7.344q.625-.781 1.187-1.36h-6.39v-1.343h8.203v1.344l-6.422 7.953-.703.797h7.312v1.36h-9.046zm9.977-4.156q0-2.297 1.281-3.406 1.078-.922 2.61-.922 1.718 0 2.797 1.125 1.093 1.11 1.093 3.093 0 1.594-.484 2.516-.484.922-1.406 1.438-.907.5-2 .5-1.735 0-2.813-1.11-1.078-1.125-1.078-3.234zm1.453 0q0 1.594.688 2.39.703.797 1.75.797 1.047 0 1.734-.797.703-.796.703-2.437 0-1.531-.703-2.328-.687-.797-1.734-.797t-1.75.797q-.688.781-.688 2.375zm7.977 4.156v-8.297h1.265v1.172q.907-1.36 2.641-1.36.75 0 1.375.266t.938.703q.312.438.437 1.047.078.391.078 1.36v5.11h-1.406v-5.048q0-.86-.172-1.281-.156-.438-.578-.688-.406-.25-.969-.25-.906 0-1.562.579-.641.562-.641 2.156v4.531h-1.406zm14.57-2.672l1.453.172q-.344 1.281-1.281 1.984-.922.704-2.36.704-1.828 0-2.89-1.125-1.063-1.125-1.063-3.141 0-2.094 1.079-3.25 1.078-1.156 2.796-1.156 1.657 0 2.704 1.14 1.062 1.125 1.062 3.172v.375h-6.187q.078 1.375.765 2.11.703.718 1.735.718.78 0 1.328-.406.547-.406.86-1.297zm-4.61-2.281h4.626q-.094-1.047-.532-1.563-.671-.812-1.734-.812-.969 0-1.64.656-.657.64-.72 1.719zm17.688 3.922q-.781.672-1.5.953-.719.266-1.547.266-1.375 0-2.109-.672t-.734-1.703q0-.61.28-1.11.282-.515.72-.812.453-.313 1.015-.469.422-.11 1.25-.203 1.703-.203 2.516-.485v-.375q0-.859-.39-1.203-.548-.484-1.61-.484-.985 0-1.469.36-.469.343-.687 1.218l-1.375-.187q.187-.875.609-1.422.437-.547 1.25-.828.812-.297 1.875-.297 1.062 0 1.719.25.672.25.984.625.313.375.438.953.078.36.078 1.297v1.875q0 1.968.078 2.484.094.516.36 1h-1.47q-.218-.437-.28-1.031zm-.11-3.14q-.765.312-2.296.53-.875.125-1.234.282-.36.156-.563.468-.187.297-.187.657 0 .562.421.937.438.375 1.25.375.813 0 1.438-.344.64-.359.937-.984.235-.469.235-1.406v-.516z"/><path d="M687.283 472.454h69.134v36.126h-69.134z"/><path fill="#000" d="M696.611 496.814v-1.406l5.86-7.344q.625-.781 1.187-1.36h-6.39v-1.343h8.203v1.344l-6.422 7.953-.703.797h7.312v1.36h-9.047zm9.977-4.156q0-2.297 1.281-3.406 1.078-.922 2.61-.922 1.718 0 2.797 1.125 1.093 1.11 1.093 3.094 0 1.593-.484 2.515-.484.922-1.406 1.438-.907.5-2 .5-1.735 0-2.813-1.11-1.078-1.125-1.078-3.234zm1.453 0q0 1.594.688 2.39.703.797 1.75.797 1.047 0 1.734-.796.703-.797.703-2.438 0-1.531-.703-2.328-.687-.797-1.734-.797t-1.75.797q-.688.781-.688 2.375zm7.977 4.156v-8.297h1.265v1.172q.907-1.36 2.64-1.36.75 0 1.376.266.625.266.937.704.313.437.438 1.046.078.391.078 1.36v5.11h-1.406v-5.048q0-.859-.172-1.28-.156-.438-.578-.688-.406-.25-.969-.25-.906 0-1.562.578-.641.562-.641 2.156v4.531h-1.406zm14.57-2.672l1.453.172q-.344 1.281-1.281 1.985-.922.703-2.36.703-1.828 0-2.89-1.125-1.063-1.125-1.063-3.14 0-2.095 1.079-3.25 1.078-1.157 2.796-1.157 1.657 0 2.704 1.14 1.062 1.125 1.062 3.172v.375h-6.187q.078 1.375.765 2.11.703.718 1.735.718.78 0 1.328-.406.547-.406.859-1.297zm-4.61-2.28h4.626q-.094-1.048-.532-1.563-.671-.813-1.734-.813-.969 0-1.64.656-.657.641-.72 1.72zm13.579 4.952h-1.313v-11.453h1.407v4.078q.89-1.11 2.28-1.11.766 0 1.438.313.688.297 1.125.86.453.562.703 1.36.25.78.25 1.671 0 2.14-1.062 3.312-1.047 1.157-2.531 1.157-1.47 0-2.297-1.235v1.047zm-.016-4.219q0 1.5.406 2.157.657 1.093 1.797 1.093.922 0 1.594-.796.672-.813.672-2.391 0-1.625-.656-2.39-.641-.782-1.547-.782-.922 0-1.594.797t-.672 2.312z"/><path fill="#f4cccc" d="M365.769 144.003c0-12.663 9.829-22.929 21.953-22.929 5.822 0 11.406 2.416 15.523 6.716 4.117 4.3 6.43 10.132 6.43 16.213 0 12.664-9.83 22.93-21.953 22.93-12.124 0-21.953-10.266-21.953-22.93z"/><path stroke="#000" stroke-width="2" stroke-linejoin="round" stroke-linecap="butt" d="M365.769 144.003c0-12.663 9.829-22.929 21.953-22.929 5.822 0 11.406 2.416 15.523 6.716 4.117 4.3 6.43 10.132 6.43 16.213 0 12.664-9.83 22.93-21.953 22.93-12.124 0-21.953-10.266-21.953-22.93z"/><path d="M375.094 139.859c-.248-1.998.568-3.977 2.103-5.096 1.535-1.118 3.52-1.181 5.112-.162.563-1.162 1.596-1.964 2.784-2.164 1.188-.2 2.392.226 3.249 1.15.48-1.054 1.423-1.762 2.495-1.873 1.07-.111 2.119.39 2.771 1.327.868-1.117 2.249-1.587 3.545-1.207 1.296.38 2.275 1.541 2.513 2.982 1.063.317 1.949 1.123 2.428 2.21a4.535 4.535 0 0 1 .07 3.458c1.048 1.49 1.293 3.476.644 5.216-.648 1.74-2.093 2.973-3.794 3.24-.012 1.632-.831 3.13-2.142 3.917a3.831 3.831 0 0 1-4.175-.127c-.54 1.956-2.061 3.395-3.905 3.696-1.844.3-3.68-.591-4.716-2.29-1.27.837-2.794 1.078-4.228.669-1.434-.41-2.657-1.435-3.394-2.845-1.297.166-2.552-.57-3.14-1.841-.59-1.272-.388-2.81.505-3.85-1.157-.744-1.748-2.223-1.464-3.664.284-1.44 1.38-2.518 2.713-2.669z"/><path d="M373.82 146.27a2.879 2.879 0 0 0 1.808.457m.826 5.233a2.9 2.9 0 0 0 .792-.22m6.83 2.396a5.479 5.479 0 0 1-.477-.998m9.098-.408c.098-.357.162-.724.19-1.095m6.126-2.696c.013-1.739-.89-3.33-2.32-4.092m5.472-4.363a4.169 4.169 0 0 1-1.034 1.535m-1.465-7.203c.04.239.058.482.054.724m-6.112-2.5c-.216.28-.395.59-.53.925m-4.736-.379a3.602 3.602 0 0 0-.257.797m-5.776.218c.336.216.648.476.928.774m-8.143 4.484c.035.275.089.548.162.814"/><path stroke="#fff" stroke-width="2" stroke-linejoin="round" stroke-linecap="butt" d="M375.094 139.859c-.248-1.998.568-3.977 2.103-5.096 1.535-1.118 3.52-1.181 5.112-.162.563-1.162 1.596-1.964 2.784-2.164 1.188-.2 2.392.226 3.249 1.15.48-1.054 1.423-1.762 2.495-1.873 1.07-.111 2.119.39 2.771 1.327.868-1.117 2.249-1.587 3.545-1.207 1.296.38 2.275 1.541 2.513 2.982 1.063.317 1.949 1.123 2.428 2.21a4.535 4.535 0 0 1 .07 3.458c1.048 1.49 1.293 3.476.644 5.216-.648 1.74-2.093 2.973-3.794 3.24-.012 1.632-.831 3.13-2.142 3.917a3.831 3.831 0 0 1-4.175-.127c-.54 1.956-2.061 3.395-3.905 3.696-1.844.3-3.68-.591-4.716-2.29-1.27.837-2.794 1.078-4.228.669-1.434-.41-2.657-1.435-3.394-2.845-1.297.166-2.552-.57-3.14-1.841-.59-1.272-.388-2.81.505-3.85-1.157-.744-1.748-2.223-1.464-3.664.284-1.44 1.38-2.518 2.713-2.669z"/><path stroke="#fff" stroke-width="2" stroke-linejoin="round" stroke-linecap="butt" d="M373.82 146.27a2.879 2.879 0 0 0 1.808.457m.826 5.233a2.9 2.9 0 0 0 .792-.22m6.83 2.396a5.479 5.479 0 0 1-.477-.998m9.098-.408c.098-.357.162-.724.19-1.095m6.126-2.696c.013-1.739-.89-3.33-2.32-4.092m5.472-4.363a4.169 4.169 0 0 1-1.034 1.535m-1.465-7.203c.04.239.058.482.054.724m-6.112-2.5c-.216.28-.395.59-.53.925m-4.736-.379a3.602 3.602 0 0 0-.257.797m-5.776.218c.336.216.648.476.928.774m-8.143 4.484c.035.275.089.548.162.814"/><path d="M438.656 246.001v-39.527h-50.93v-39.528"/><path stroke="#000" stroke-width="2" stroke-linejoin="round" stroke-linecap="butt" d="M438.656 246.001v-39.527h-50.93v-39.528"/><path fill="#cfe2f3" d="M101.528 35.065c-3.78-6.377 8.629-12.69 31.96-16.26 23.33-3.57 53.491-3.77 77.684-.517 8.57-3.708 24.256-6.268 42.313-6.906 18.056-.637 36.363.722 49.383 3.667 7.3-3.362 21.635-5.62 37.917-5.974 16.283-.354 32.208 1.246 42.125 4.233 13.19-3.563 34.175-5.063 53.875-3.851 19.7 1.211 34.576 4.918 38.193 9.515 16.159 1.012 29.62 3.585 36.903 7.053 7.284 3.47 7.676 7.493 1.076 11.034 15.912 4.755 19.635 11.09 9.778 16.643-9.857 5.552-31.812 9.487-57.672 10.336-.182 5.21-12.63 9.993-32.545 12.502-19.915 2.509-44.188 2.354-63.463-.406-8.21 6.241-31.318 10.833-59.341 11.793-28.024.959-55.938-1.887-71.683-7.308-19.3 2.672-42.46 3.442-64.253 2.136-21.793-1.307-40.385-4.579-51.58-9.08-19.723.53-38.792-1.815-47.744-5.873-8.952-4.058-5.88-8.963 7.69-12.282-17.593-2.378-26.57-7.095-22.25-11.693s20.959-8.034 41.239-8.516z"/><path d="M82.149 55.52c8.302 1.121 17.893 1.63 27.485 1.458m12.564 16.698c4.125-.111 8.168-.346 12.025-.698m103.803 7.64c-2.901-.998-5.33-2.066-7.246-3.184m138.275-1.3c1.497-1.138 2.467-2.31 2.893-3.494m93.111-8.602c.194-5.548-13.53-10.628-35.279-13.058m83.173-13.92c-3.522 1.888-8.899 3.564-15.709 4.895m-22.267-22.983c.6.763.877 1.537.829 2.313m-92.895-7.976c-3.29.888-6 1.882-8.047 2.949m-71.996-1.21c-1.754.808-3.063 1.663-3.898 2.544m-87.799.696c5.12.688 9.855 1.517 14.104 2.467m-123.747 14.31c.52.878 1.344 1.746 2.461 2.596"/><path stroke="#000" stroke-width="2" stroke-linejoin="round" stroke-linecap="butt" d="M101.528 35.065c-3.78-6.377 8.629-12.69 31.96-16.26 23.33-3.57 53.491-3.77 77.684-.517 8.57-3.708 24.256-6.268 42.313-6.906 18.056-.637 36.363.722 49.383 3.667 7.3-3.362 21.635-5.62 37.917-5.974 16.283-.354 32.208 1.246 42.125 4.233 13.19-3.563 34.175-5.063 53.875-3.851 19.7 1.211 34.576 4.918 38.193 9.515 16.159 1.012 29.62 3.585 36.903 7.053 7.284 3.47 7.676 7.493 1.076 11.034 15.912 4.755 19.635 11.09 9.778 16.643-9.857 5.552-31.812 9.487-57.672 10.336-.182 5.21-12.63 9.993-32.545 12.502-19.915 2.509-44.188 2.354-63.463-.406-8.21 6.241-31.318 10.833-59.341 11.793-28.024.959-55.938-1.887-71.683-7.308-19.3 2.672-42.46 3.442-64.253 2.136-21.793-1.307-40.385-4.579-51.58-9.08-19.723.53-38.792-1.815-47.744-5.873-8.952-4.058-5.88-8.963 7.69-12.282-17.593-2.378-26.57-7.095-22.25-11.693s20.959-8.034 41.239-8.516z"/><path stroke="#000" stroke-width="2" stroke-linejoin="round" stroke-linecap="butt" d="M82.149 55.52c8.302 1.121 17.893 1.63 27.485 1.458m12.564 16.698c4.125-.111 8.168-.346 12.025-.698m103.803 7.64c-2.901-.998-5.33-2.066-7.246-3.184m138.275-1.3c1.497-1.138 2.467-2.31 2.893-3.494m93.111-8.602c.194-5.548-13.53-10.628-35.279-13.058m83.173-13.92c-3.522 1.888-8.899 3.564-15.709 4.895m-22.267-22.983c.6.763.877 1.537.829 2.313m-92.895-7.976c-3.29.888-6 1.882-8.047 2.949m-71.996-1.21c-1.754.808-3.063 1.663-3.898 2.544m-87.799.696c5.12.688 9.855 1.517 14.104 2.467m-123.747 14.31c.52.878 1.344 1.746 2.461 2.596"/><path fill="#000" d="M251.285 52.323V40.87h1.515v11.453h-1.515zm4.007 0v-8.297h1.266v1.172q.906-1.36 2.64-1.36.75 0 1.376.266.625.266.937.703.313.438.438 1.047.078.391.078 1.36v5.11h-1.406v-5.048q0-.86-.172-1.281-.157-.438-.578-.688-.407-.25-.97-.25-.905 0-1.562.579-.64.562-.64 2.156v4.531h-1.407zm11.961-1.266l.204 1.25q-.594.125-1.063.125-.766 0-1.187-.234-.422-.25-.594-.64-.172-.407-.172-1.672V45.12h-1.031v-1.094h1.03v-2.062l1.407-.844v2.906h1.406v1.094h-1.406v4.844q0 .61.063.781.078.172.25.281.172.094.484.094.234 0 .61-.063zm7.055-1.406l1.453.172q-.344 1.281-1.281 1.984-.922.704-2.36.704-1.828 0-2.89-1.125-1.063-1.125-1.063-3.141 0-2.094 1.079-3.25 1.078-1.156 2.796-1.156 1.657 0 2.704 1.14 1.062 1.125 1.062 3.172v.375h-6.187q.078 1.375.765 2.11.703.718 1.735.718.78 0 1.328-.406.547-.406.86-1.297zm-4.61-2.281h4.626q-.094-1.047-.532-1.563-.671-.812-1.734-.812-.969 0-1.64.656-.657.64-.72 1.719zm7.821 4.953v-8.297h1.266v1.25q.484-.875.89-1.156.407-.281.907-.281.703 0 1.437.453l-.484 1.297q-.516-.297-1.032-.297-.453 0-.828.281-.36.266-.515.766-.235.75-.235 1.64v4.344h-1.406zm5.344 0v-8.297h1.265v1.172q.907-1.36 2.641-1.36.75 0 1.375.266t.938.703q.312.438.437 1.047.078.391.078 1.36v5.11h-1.406v-5.048q0-.86-.172-1.281-.156-.438-.578-.688-.406-.25-.969-.25-.906 0-1.562.579-.641.562-.641 2.156v4.531h-1.406zm14.57-2.672l1.453.172q-.344 1.281-1.281 1.984-.922.704-2.36.704-1.828 0-2.89-1.125-1.063-1.125-1.063-3.141 0-2.094 1.079-3.25 1.078-1.156 2.796-1.156 1.657 0 2.704 1.14 1.062 1.125 1.062 3.172v.375h-6.187q.078 1.375.765 2.11.703.718 1.735.718.78 0 1.328-.406.547-.406.86-1.297zm-4.61-2.281h4.626q-.094-1.047-.532-1.563-.671-.812-1.734-.812-.969 0-1.64.656-.657.64-.72 1.719zm10.9 3.687l.202 1.25q-.593.125-1.062.125-.766 0-1.188-.234-.422-.25-.593-.64-.172-.407-.172-1.672V45.12h-1.032v-1.094h1.032v-2.062l1.406-.844v2.906h1.406v1.094h-1.406v4.844q0 .61.062.781.079.172.25.281.172.094.485.094.234 0 .61-.063z"/><path d="M388.919 76.476l-1.197 44.598"/><path stroke="#000" stroke-width="2" stroke-linejoin="round" stroke-linecap="butt" d="M388.919 76.476l-1.197 44.598"/><path fill="#f4cccc" d="M486.337 144.003c0-12.663 9.828-22.929 21.953-22.929 5.822 0 11.406 2.416 15.523 6.716 4.117 4.3 6.43 10.132 6.43 16.213 0 12.664-9.83 22.93-21.953 22.93-12.125 0-21.953-10.266-21.953-22.93z"/><path stroke="#000" stroke-width="2" stroke-linejoin="round" stroke-linecap="butt" d="M486.337 144.003c0-12.663 9.828-22.929 21.953-22.929 5.822 0 11.406 2.416 15.523 6.716 4.117 4.3 6.43 10.132 6.43 16.213 0 12.664-9.83 22.93-21.953 22.93-12.125 0-21.953-10.266-21.953-22.93z"/><path fill="#cfe2f3" d="M720.982 32.973c-1.507-7.402 3.441-14.73 12.745-18.874 9.304-4.143 21.332-4.377 30.98-.6 3.418-4.304 9.673-7.276 16.874-8.016 7.2-.74 14.502.837 19.694 4.256 2.911-3.902 8.628-6.524 15.12-6.935 6.494-.41 12.845 1.447 16.8 4.915 5.26-4.137 13.628-5.878 21.484-4.472 7.857 1.407 13.79 5.71 15.231 11.046 6.445 1.175 11.812 4.161 14.717 8.187 2.905 4.027 3.061 8.698.43 12.808 6.345 5.519 7.83 12.874 3.899 19.319-3.931 6.445-12.687 11.012-23 11.998-.072 6.049-5.036 11.6-12.978 14.512-7.942 2.912-17.622 2.732-25.308-.471-3.275 7.244-12.49 12.575-23.665 13.688-11.176 1.114-22.308-2.19-28.587-8.482-7.697 3.102-16.932 3.995-25.623 2.479-8.691-1.517-16.105-5.315-20.57-10.539-7.865.615-15.47-2.108-19.04-6.818-3.57-4.71-2.345-10.405 3.067-14.257-7.016-2.76-10.596-8.236-8.873-13.573 1.723-5.337 8.358-9.325 16.446-9.885z"/><path d="M713.254 56.717c3.31 1.302 7.136 1.893 10.96 1.692m5.011 19.383a26.836 26.836 0 0 0 4.796-.81m41.395 8.87a18.658 18.658 0 0 1-2.89-3.697m55.144-1.51a14.01 14.01 0 0 0 1.153-4.056m37.132-9.985c.077-6.44-5.396-12.336-14.069-15.157m33.169-16.159c-1.405 2.193-3.55 4.138-6.265 5.684m-8.88-26.679c.24.886.35 1.785.33 2.684M833.196 7.72c-1.312 1.032-2.393 2.185-3.21 3.423m-28.71-1.403c-.7.937-1.222 1.929-1.555 2.952m-35.013.808c2.041.799 3.93 1.76 5.624 2.864m-49.349 16.61a14.16 14.16 0 0 0 .982 3.013"/><path stroke="#000" stroke-width="2" stroke-linejoin="round" stroke-linecap="butt" d="M720.982 32.973c-1.507-7.402 3.441-14.73 12.745-18.874 9.304-4.143 21.332-4.377 30.98-.6 3.418-4.304 9.673-7.276 16.874-8.016 7.2-.74 14.502.837 19.694 4.256 2.911-3.902 8.628-6.524 15.12-6.935 6.494-.41 12.845 1.447 16.8 4.915 5.26-4.137 13.628-5.878 21.484-4.472 7.857 1.407 13.79 5.71 15.231 11.046 6.445 1.175 11.812 4.161 14.717 8.187 2.905 4.027 3.061 8.698.43 12.808 6.345 5.519 7.83 12.874 3.899 19.319-3.931 6.445-12.687 11.012-23 11.998-.072 6.049-5.036 11.6-12.978 14.512-7.942 2.912-17.622 2.732-25.308-.471-3.275 7.244-12.49 12.575-23.665 13.688-11.176 1.114-22.308-2.19-28.587-8.482-7.697 3.102-16.932 3.995-25.623 2.479-8.691-1.517-16.105-5.315-20.57-10.539-7.865.615-15.47-2.108-19.04-6.818-3.57-4.71-2.345-10.405 3.067-14.257-7.016-2.76-10.596-8.236-8.873-13.573 1.723-5.337 8.358-9.325 16.446-9.885z"/><path stroke="#000" stroke-width="2" stroke-linejoin="round" stroke-linecap="butt" d="M713.254 56.717c3.31 1.302 7.136 1.893 10.96 1.692m5.011 19.383a26.836 26.836 0 0 0 4.796-.81m41.395 8.87a18.658 18.658 0 0 1-2.89-3.697m55.144-1.51a14.01 14.01 0 0 0 1.153-4.056m37.132-9.985c.077-6.44-5.396-12.336-14.069-15.157m33.169-16.159c-1.405 2.193-3.55 4.138-6.265 5.684m-8.88-26.679c.24.886.35 1.785.33 2.684M833.196 7.72c-1.312 1.032-2.393 2.185-3.21 3.423m-28.71-1.403c-.7.937-1.222 1.929-1.555 2.952m-35.013.808c2.041.799 3.93 1.76 5.624 2.864m-49.349 16.61a14.16 14.16 0 0 0 .982 3.013"/><path fill="#000" d="M761.664 37.358l1.797.454q-.563 2.218-2.032 3.39-1.468 1.156-3.593 1.156-2.204 0-3.579-.89-1.375-.906-2.093-2.594-.72-1.703-.72-3.656 0-2.125.798-3.703.812-1.578 2.312-2.39 1.5-.829 3.297-.829 2.047 0 3.438 1.047 1.39 1.031 1.937 2.906l-1.765.422q-.47-1.484-1.375-2.156-.907-.688-2.266-.688-1.563 0-2.625.75-1.047.75-1.484 2.031-.422 1.266-.422 2.61 0 1.734.5 3.031.515 1.281 1.578 1.922 1.078.64 2.312.64 1.516 0 2.563-.859 1.047-.875 1.422-2.594zm10.004 4.766v-1.453q-1.14 1.672-3.125 1.672-.86 0-1.625-.328-.75-.344-1.125-.844-.36-.5-.516-1.234-.093-.5-.093-1.563v-6.11h1.671v5.47q0 1.312.094 1.765.156.656.672 1.031.516.375 1.266.375t1.406-.375q.656-.39.922-1.047.281-.671.281-1.937v-5.281h1.672v9.86h-1.5zm3.25-2.937l1.657-.266q.14 1 .765 1.531.641.516 1.782.516 1.156 0 1.703-.469.562-.469.562-1.094 0-.562-.484-.89-.344-.219-1.703-.563-1.844-.469-2.563-.797-.703-.343-1.078-.937-.36-.61-.36-1.328 0-.657.298-1.219.312-.563.828-.938.39-.28 1.062-.484.672-.203 1.438-.203 1.172 0 2.047.344.875.328 1.281.906.422.562.578 1.516l-1.625.218q-.11-.75-.656-1.172-.531-.437-1.5-.437-1.156 0-1.64.39-.485.376-.485.876 0 .328.203.593.203.266.64.438.25.094 1.47.437 1.765.47 2.468.766.703.297 1.094.875.406.578.406 1.437 0 .829-.484 1.579-.485.734-1.407 1.14-.921.39-2.078.39-1.922 0-2.937-.796-1-.797-1.281-2.36zm13.657 1.437l.234 1.484q-.703.141-1.265.141-.907 0-1.407-.281-.5-.297-.703-.75-.203-.469-.203-1.985v-5.656h-1.234v-1.312h1.234v-2.438l1.656-1v3.438h1.688v1.312h-1.688v5.75q0 .719.078.922.094.203.297.328.203.125.578.125.266 0 .735-.078zm.902-3.422q0-2.734 1.531-4.062 1.266-1.094 3.094-1.094 2.031 0 3.312 1.344 1.297 1.328 1.297 3.672 0 1.906-.578 3-.562 1.078-1.656 1.687-1.078.594-2.375.594-2.063 0-3.344-1.328-1.281-1.328-1.281-3.813zm1.719 0q0 1.89.828 2.828t2.078.938q1.25 0 2.062-.938.829-.953.829-2.89 0-1.828-.829-2.766-.828-.937-2.062-.937-1.25 0-2.078.937-.828.938-.828 2.828zm9.282 4.922v-9.86h1.5v1.391q.453-.718 1.218-1.156.782-.453 1.766-.453 1.094 0 1.797.453.703.453.984 1.281 1.172-1.734 3.047-1.734 1.469 0 2.25.812.797.813.797 2.5v6.766h-1.672v-6.203q0-1-.156-1.438-.156-.453-.594-.718-.422-.266-1-.266-1.031 0-1.719.688-.687.687-.687 2.218v5.72h-1.672v-6.407q0-1.11-.406-1.656-.407-.563-1.344-.563-.703 0-1.313.375-.593.36-.859 1.078-.266.719-.266 2.063v5.11h-1.671zm22.29-3.172l1.72.219q-.407 1.5-1.516 2.344-1.094.828-2.813.828-2.156 0-3.422-1.328-1.265-1.328-1.265-3.735 0-2.484 1.265-3.859 1.281-1.375 3.328-1.375 1.985 0 3.235 1.344 1.25 1.343 1.25 3.797 0 .14-.016.437h-7.344q.094 1.625.922 2.484.828.86 2.063.86.906 0 1.547-.469.656-.484 1.046-1.547zm-5.484-2.703h5.5q-.11-1.234-.625-1.86-.797-.968-2.078-.968-1.14 0-1.938.781-.78.766-.859 2.047zm9.095 5.875v-9.86h1.5v1.5q.578-1.046 1.062-1.374.484-.344 1.078-.344.844 0 1.719.547l-.578 1.547q-.61-.36-1.235-.36-.546 0-.984.328-.422.329-.61.907-.28.89-.28 1.953v5.156h-1.672zM775.71 59.75l1.687-.142q.125 1.016.563 1.672.437.657 1.36 1.063.937.406 2.093.406 1.031 0 1.813-.312.796-.313 1.187-.844.39-.531.39-1.156 0-.641-.374-1.11-.375-.484-1.235-.812-.547-.219-2.422-.657-1.875-.453-2.625-.859-.968-.516-1.453-1.266-.468-.75-.468-1.687 0-1.031.578-1.922.593-.906 1.703-1.36 1.125-.468 2.5-.468 1.515 0 2.672.484 1.156.485 1.765 1.438.625.937.672 2.14l-1.719.125q-.14-1.28-.953-1.937-.797-.672-2.359-.672-1.625 0-2.375.61-.75.593-.75 1.437 0 .734.531 1.203.516.469 2.703.969 2.203.5 3.016.875 1.187.547 1.75 1.39.578.829.578 1.922 0 1.094-.625 2.063-.625.953-1.797 1.484-1.156.531-2.61.531-1.843 0-3.093-.53-1.25-.548-1.969-1.626-.703-1.078-.734-2.453zm12.85-7.313V50.53h1.672v1.907h-1.672zm0 11.687v-9.86h1.672v9.86h-1.672zm7.785-1.5l.235 1.484q-.703.141-1.266.141-.906 0-1.406-.281-.5-.297-.703-.75-.203-.469-.203-1.985v-5.656h-1.235v-1.312h1.235v-2.438l1.656-1v3.438h1.687v1.312h-1.687v5.75q0 .719.078.922.094.203.297.328.203.125.578.125.266 0 .734-.078zm8.277-1.672l1.72.219q-.407 1.5-1.517 2.344-1.093.828-2.812.828-2.156 0-3.422-1.328t-1.266-3.735q0-2.484 1.266-3.859 1.281-1.375 3.328-1.375 1.985 0 3.235 1.344 1.25 1.343 1.25 3.797 0 .14-.016.437h-7.344q.094 1.625.922 2.484.828.86 2.063.86.906 0 1.546-.469.657-.484 1.047-1.547zm-5.484-2.703h5.5q-.11-1.234-.625-1.86-.797-.968-2.078-.968-1.14 0-1.938.781-.78.766-.86 2.047z"/><path fill="#f4cccc" d="M498.483 128.775h19.628l-9.814 15.231 9.814 15.232h-19.628l9.814-15.232z"/><path stroke="#fff" stroke-width="2" stroke-linejoin="round" stroke-linecap="butt" d="M498.483 128.775h19.628l-9.814 15.231 9.814 15.232h-19.628l9.814-15.232z"/><path fill="#f4cccc" d="M685.414 44.921c0-12.663 9.829-22.93 21.953-22.93 5.822 0 11.406 2.417 15.523 6.717 4.117 4.3 6.43 10.132 6.43 16.213 0 12.663-9.829 22.93-21.953 22.93-12.124 0-21.953-10.267-21.953-22.93z"/><path stroke="#000" stroke-width="2" stroke-linejoin="round" stroke-linecap="butt" d="M685.414 44.921c0-12.663 9.829-22.93 21.953-22.93 5.822 0 11.406 2.417 15.523 6.717 4.117 4.3 6.43 10.132 6.43 16.213 0 12.663-9.829 22.93-21.953 22.93-12.124 0-21.953-10.267-21.953-22.93z"/><path fill="#f4cccc" d="M697.56 29.692h19.628l-9.814 15.232 9.814 15.231H697.56l9.813-15.231z"/><path stroke="#fff" stroke-width="2" stroke-linejoin="round" stroke-linecap="butt" d="M697.56 29.692h19.628l-9.814 15.232 9.814 15.231H697.56l9.813-15.231z"/><path d="M508.29 121.074V44.917h177.133"/><path stroke="#000" stroke-width="2" stroke-linejoin="round" stroke-linecap="butt" stroke-dasharray="8.0,6.0" d="M508.29 121.074V44.917h177.133"/><path d="M438.648 246.001v-39.527h69.638v-39.528"/><path stroke="#000" stroke-width="2" stroke-linejoin="round" stroke-linecap="butt" d="M438.648 246.001v-39.527h69.638v-39.528"/><path d="M407.212 105.42h82.708v53.827h-82.708z"/><path fill="#000" d="M417.43 127.22v-9.313h1.22v9.313h-1.22zm3.344 0v-6.734h1.031v.953q.735-1.11 2.141-1.11.61 0 1.11.219.515.219.765.578.266.344.36.844.062.312.062 1.11v4.14h-1.14v-4.094q0-.703-.141-1.047-.125-.343-.47-.547-.327-.218-.78-.218-.735 0-1.266.468-.531.454-.531 1.75v3.688h-1.14zm9.913-1.016l.156 1q-.484.11-.86.11-.624 0-.968-.203-.344-.204-.485-.516-.14-.328-.14-1.344v-3.89h-.828v-.875h.828v-1.672l1.14-.688v2.36h1.157v.875h-1.157v3.953q0 .484.063.625.062.14.187.218.141.079.391.079.203 0 .516-.032zm5.812-1.156l1.188.14q-.282 1.048-1.047 1.626-.75.562-1.922.562-1.485 0-2.36-.906-.859-.922-.859-2.563 0-1.703.875-2.64.89-.938 2.281-.938 1.36 0 2.203.922.86.922.86 2.578v.313h-5.031q.062 1.11.625 1.703.562.594 1.406.594.64 0 1.078-.328.453-.344.703-1.063zm-3.75-1.844h3.766q-.078-.86-.438-1.281-.547-.656-1.406-.656-.797 0-1.328.531-.531.516-.594 1.406zm6.537 4.016v-6.734h1.032v1.015q.39-.719.718-.937.344-.235.735-.235.578 0 1.172.36l-.39 1.062q-.423-.25-.829-.25-.375 0-.688.235-.296.218-.421.625-.188.609-.188 1.328v3.53h-1.14zm4.454 0v-6.734h1.032v.953q.734-1.11 2.14-1.11.61 0 1.11.219.515.219.765.578.266.344.36.844.062.312.062 1.11v4.14h-1.14v-4.094q0-.703-.141-1.047-.125-.343-.469-.547-.328-.218-.781-.218-.734 0-1.266.468-.53.454-.53 1.75v3.688h-1.142zm12.022-2.172l1.188.14q-.281 1.048-1.047 1.626-.75.562-1.922.562-1.484 0-2.36-.906-.859-.922-.859-2.563 0-1.703.875-2.64.891-.938 2.282-.938 1.359 0 2.203.922.86.922.86 2.578v.313h-5.032q.062 1.11.625 1.703.562.594 1.406.594.64 0 1.078-.328.453-.344.703-1.063zm-3.75-1.844h3.766q-.078-.86-.438-1.281-.546-.656-1.406-.656-.797 0-1.328.531-.531.516-.594 1.406zm9.053 3l.157 1q-.485.11-.86.11-.625 0-.968-.203-.344-.204-.485-.516-.14-.328-.14-1.344v-3.89h-.829v-.875h.829v-1.672l1.14-.688v2.36h1.156v.875h-1.156v3.953q0 .484.063.625.062.14.187.218.14.079.39.079.204 0 .516-.032zm-39.494 13.36v-1.078l3.938-.016v3.453q-.907.719-1.875 1.094-.953.36-1.97.36-1.374 0-2.5-.579-1.124-.594-1.702-1.703-.563-1.11-.563-2.484 0-1.36.563-2.532.578-1.187 1.64-1.75 1.079-.578 2.454-.578 1.015 0 1.828.328.812.328 1.28.922.47.578.704 1.516l-1.11.297q-.202-.703-.515-1.11-.312-.406-.89-.64-.579-.25-1.282-.25-.844 0-1.469.265-.609.25-.984.672-.375.406-.594.906-.343.875-.343 1.875 0 1.25.421 2.094.422.828 1.235 1.235.828.406 1.75.406.797 0 1.562-.297.766-.313 1.157-.672v-1.734h-2.735zm10.258 2.828q-.625.531-1.219.765-.578.22-1.25.22-1.125 0-1.719-.548-.593-.547-.593-1.39 0-.485.218-.891.235-.422.594-.672.375-.25.828-.375.328-.078 1.016-.172 1.375-.156 2.031-.39.016-.235.016-.297 0-.703-.328-.985-.438-.39-1.297-.39-.813 0-1.203.281-.375.281-.563 1l-1.11-.14q.141-.72.485-1.157.36-.453 1.016-.687.672-.235 1.531-.235.875 0 1.406.203.547.204.797.516.25.297.36.766.046.297.046 1.062v1.516q0 1.594.078 2.015.079.422.282.813h-1.188q-.172-.36-.234-.828zm-.094-2.563q-.625.266-1.86.438-.702.11-1 .234-.296.125-.452.375-.157.235-.157.531 0 .454.344.766.344.297 1.016.297.656 0 1.172-.281.515-.297.765-.797.172-.375.172-1.14v-.423zm5.616 2.375l.156 1q-.484.11-.86.11-.624 0-.968-.203-.344-.204-.485-.516-.14-.328-.14-1.344v-3.89h-.828v-.875h.828v-1.672l1.14-.688v2.36h1.157v.875h-1.157v3.953q0 .484.063.625.062.14.187.218.141.079.391.079.203 0 .516-.032zm5.812-1.156l1.188.14q-.282 1.048-1.047 1.626-.75.562-1.922.562-1.485 0-2.36-.906-.859-.922-.859-2.563 0-1.703.875-2.64.89-.938 2.281-.938 1.36 0 2.203.922.86.922.86 2.578v.313h-5.031q.062 1.11.625 1.703.562.594 1.406.594.64 0 1.078-.328.453-.344.703-1.063zm-3.75-1.844h3.766q-.078-.86-.438-1.281-.547-.656-1.406-.656-.797 0-1.328.531-.531.516-.594 1.406zm7.788 4.016l-2.063-6.734h1.188l1.078 3.89.39 1.438q.032-.11.36-1.391l1.062-3.937h1.172l1.016 3.906.343 1.281.375-1.297 1.157-3.89h1.11l-2.11 6.734h-1.172l-1.078-4.031-.266-1.157-1.36 5.188h-1.202zm12.781-.828q-.625.531-1.219.765-.578.22-1.25.22-1.125 0-1.719-.548-.593-.547-.593-1.39 0-.485.218-.891.235-.422.594-.672.375-.25.828-.375.328-.078 1.016-.172 1.375-.156 2.031-.39.016-.235.016-.297 0-.703-.328-.985-.438-.39-1.297-.39-.813 0-1.203.281-.375.281-.563 1l-1.11-.14q.141-.72.485-1.157.36-.453 1.016-.687.672-.235 1.531-.235.875 0 1.406.203.547.204.797.516.25.297.36.766.046.297.046 1.062v1.516q0 1.594.079 2.015.078.422.28.813h-1.187q-.172-.36-.234-.828zm-.094-2.563q-.625.266-1.86.438-.702.11-1 .234-.296.125-.452.375-.157.235-.157.531 0 .454.344.766.344.297 1.016.297.656 0 1.172-.281.515-.297.765-.797.172-.375.172-1.14v-.423zm3.069 5.985l-.14-1.063q.374.094.656.094.39 0 .609-.125.234-.125.375-.36.11-.171.36-.843.03-.094.093-.281l-2.562-6.75h1.234l1.406 3.89q.266.75.485 1.563.203-.782.468-1.532l1.453-3.921h1.141l-2.562 6.843q-.422 1.11-.641 1.532-.313.562-.703.828-.39.265-.938.265-.328 0-.734-.14z"/><path d="M527.949 107.88h82.709v53.826h-82.71z"/><path fill="#000" d="M540.605 129.68l-3.594-9.313h1.329l2.421 6.765q.282.813.485 1.531.219-.765.5-1.53l2.515-6.766h1.25l-3.64 9.312h-1.266zm6.234 0v-9.313h3.515q.922 0 1.407.093.687.11 1.156.438.469.312.75.89.281.579.281 1.282 0 1.187-.766 2.015-.75.813-2.718.813h-2.39v3.781h-1.235zm1.234-4.876h2.406q1.188 0 1.688-.437.515-.454.515-1.266 0-.578-.296-.984-.297-.422-.782-.563-.312-.078-1.156-.078h-2.375v3.328zm7.64 4.875v-9.312h1.265l4.891 7.312v-7.312h1.188v9.312h-1.266l-4.89-7.312v7.312h-1.188zm-13.405 12.344v-1.078l3.938-.016v3.453q-.906.719-1.875 1.094-.953.36-1.969.36-1.375 0-2.5-.579-1.125-.594-1.703-1.703-.563-1.11-.563-2.484 0-1.36.563-2.532.578-1.187 1.64-1.75 1.079-.578 2.454-.578 1.015 0 1.828.328.812.329 1.281.922.469.578.703 1.516l-1.11.297q-.202-.703-.515-1.11-.312-.406-.89-.64-.579-.25-1.282-.25-.843 0-1.468.265-.61.25-.985.672-.375.407-.594.907-.343.875-.343 1.875 0 1.25.422 2.093.421.828 1.234 1.235.828.406 1.75.406.797 0 1.562-.297.766-.312 1.157-.672v-1.734h-2.735zm10.258 2.828q-.625.531-1.219.766-.578.218-1.25.218-1.125 0-1.719-.547-.593-.546-.593-1.39 0-.485.218-.89.235-.423.594-.673.375-.25.828-.375.328-.078 1.016-.172 1.375-.156 2.031-.39.016-.235.016-.297 0-.703-.328-.984-.438-.391-1.297-.391-.813 0-1.203.281-.375.281-.563 1l-1.11-.14q.141-.72.485-1.157.36-.453 1.016-.687.672-.235 1.531-.235.875 0 1.406.204.547.203.797.515.25.297.36.766.046.297.046 1.062v1.516q0 1.594.079 2.016.078.421.28.812H552.8q-.172-.36-.234-.828zm-.094-2.563q-.625.266-1.86.438-.702.11-1 .234-.296.125-.452.375-.157.235-.157.532 0 .453.344.765.344.297 1.016.297.656 0 1.172-.281.515-.297.765-.797.172-.375.172-1.14v-.423zm5.616 2.375l.156 1q-.484.11-.86.11-.624 0-.968-.203t-.484-.516q-.141-.328-.141-1.344v-3.89h-.828v-.875h.828v-1.672l1.14-.688v2.36h1.157v.875h-1.156v3.953q0 .484.062.625.063.14.188.219.14.078.39.078.203 0 .516-.032zm5.812-1.156l1.188.14q-.282 1.048-1.047 1.626-.75.562-1.922.562-1.484 0-2.36-.906-.859-.922-.859-2.562 0-1.704.875-2.641.89-.938 2.281-.938 1.36 0 2.204.922.859.922.859 2.578v.313h-5.031q.062 1.11.625 1.703.562.594 1.406.594.64 0 1.078-.328.453-.344.703-1.063zm-3.75-1.844h3.766q-.078-.859-.438-1.28-.547-.657-1.406-.657-.797 0-1.328.531-.531.516-.594 1.406zm7.788 4.016l-2.063-6.734h1.188l1.078 3.89.39 1.438q.032-.11.36-1.39l1.062-3.938h1.172l1.016 3.906.344 1.281.375-1.297 1.156-3.89h1.11l-2.11 6.734h-1.172l-1.078-4.031-.266-1.156-1.36 5.187h-1.202zm12.781-.828q-.625.531-1.219.766-.578.218-1.25.218-1.125 0-1.718-.547-.594-.546-.594-1.39 0-.485.219-.89.234-.423.593-.673.375-.25.828-.375.329-.078 1.016-.172 1.375-.156 2.031-.39.016-.235.016-.297 0-.703-.328-.984-.438-.391-1.297-.391-.813 0-1.203.281-.375.281-.563 1l-1.11-.14q.142-.72.485-1.157.36-.453 1.016-.687.672-.235 1.531-.235.875 0 1.406.204.547.203.797.515.25.297.36.766.047.297.047 1.062v1.516q0 1.594.078 2.016.078.421.28.812h-1.187q-.171-.36-.234-.828zm-.094-2.563q-.625.266-1.86.438-.702.11-1 .234-.296.125-.452.375-.156.235-.156.532 0 .453.343.765.344.297 1.016.297.656 0 1.172-.281.515-.297.765-.797.172-.375.172-1.14v-.423zm3.069 5.985l-.14-1.063q.374.094.656.094.39 0 .609-.125.234-.125.375-.36.11-.171.36-.843.03-.094.093-.281l-2.562-6.75h1.234l1.406 3.89q.266.75.485 1.563.203-.781.468-1.531l1.454-3.922h1.14l-2.562 6.843q-.422 1.11-.641 1.532-.312.562-.703.828-.39.265-.938.265-.328 0-.734-.14z"/><path d="M573.741 6.17h165.417v36.126H573.741z"/><path fill="#000" d="M590.382 24.704l1.234.313q-.39 1.515-1.406 2.312-1 .797-2.453.797-1.5 0-2.453-.61-.938-.609-1.438-1.765-.484-1.172-.484-2.5 0-1.453.562-2.531.563-1.094 1.578-1.657 1.032-.562 2.266-.562 1.39 0 2.344.719.953.703 1.328 2l-1.219.281q-.328-1.016-.937-1.469-.61-.469-1.547-.469-1.078 0-1.797.516-.719.516-1.016 1.375-.28.86-.28 1.781 0 1.188.343 2.078.344.891 1.062 1.329.735.437 1.594.437 1.031 0 1.75-.594.719-.609.969-1.78zm7.266 3.266v-.985q-.797 1.141-2.141 1.141-.594 0-1.125-.234-.516-.235-.766-.579-.25-.343-.343-.843-.079-.328-.079-1.063v-4.172h1.141v3.735q0 .89.078 1.203.11.453.453.719.344.25.86.25.515 0 .968-.266.454-.266.641-.719.188-.453.188-1.312v-3.61h1.14v6.735h-1.015zm2.537-2.016l1.125-.172q.094.672.531 1.047.438.36 1.219.36.781 0 1.156-.313.39-.328.39-.766 0-.39-.343-.609-.234-.156-1.172-.39-1.25-.313-1.734-.548-.484-.234-.734-.64t-.25-.906q0-.454.203-.829.203-.39.562-.64.266-.203.719-.328.469-.14 1-.14.781 0 1.375.233.61.22.89.61.297.39.407 1.047l-1.125.156q-.078-.531-.438-.813-.36-.296-1.031-.296-.781 0-1.125.265-.344.25-.344.61 0 .218.14.39.142.188.438.313.172.062 1.016.281 1.219.328 1.688.531.484.203.75.61.28.39.28.968t-.343 1.078q-.328.5-.953.782-.625.281-1.422.281-1.312 0-2-.547-.687-.547-.875-1.625zm9.617 1l.156 1q-.484.11-.859.11-.625 0-.969-.204-.343-.203-.484-.515-.14-.328-.14-1.344v-3.89h-.829v-.876h.828v-1.672l1.141-.687v2.36h1.156v.874h-1.156v3.953q0 .485.062.625.063.141.188.22.14.077.39.077.204 0 .516-.03zm.781-2.36q0-1.874 1.032-2.765.875-.75 2.125-.75 1.39 0 2.265.906.89.907.89 2.516 0 1.297-.39 2.047-.39.75-1.14 1.172-.75.406-1.625.406-1.422 0-2.297-.906-.86-.907-.86-2.625zm1.172 0q0 1.298.563 1.954.562.64 1.422.64.843 0 1.406-.64.578-.656.578-1.985 0-1.25-.578-1.89-.563-.656-1.406-.656-.86 0-1.422.64-.563.64-.563 1.938zm6.663 3.376v-6.735h1.015v.938q.328-.5.844-.797.531-.297 1.203-.297.75 0 1.219.313.484.312.687.859.797-1.172 2.079-1.172 1 0 1.53.563.548.546.548 1.703v4.625h-1.125v-4.25q0-.688-.11-.985-.11-.297-.406-.484-.297-.188-.687-.188-.72 0-1.188.485-.469.469-.469 1.5v3.922h-1.14v-4.375q0-.766-.282-1.14-.28-.392-.906-.392-.484 0-.89.266-.407.25-.594.734-.188.485-.188 1.407v3.5h-1.14zm15.711-2.172l1.188.14q-.281 1.047-1.047 1.625-.75.563-1.922.563-1.484 0-2.36-.906-.859-.922-.859-2.563 0-1.703.875-2.64.891-.938 2.282-.938 1.36 0 2.203.922.86.922.86 2.578v.313h-5.032q.062 1.109.625 1.703.562.593 1.406.593.64 0 1.078-.328.453-.343.703-1.062zm-3.75-1.844h3.766q-.078-.86-.437-1.281-.547-.656-1.407-.656-.797 0-1.328.53-.531.516-.594 1.407zm6.538 4.016v-6.735h1.031v1.016q.39-.719.719-.938.344-.234.734-.234.578 0 1.172.36l-.39 1.062q-.422-.25-.829-.25-.375 0-.687.234-.297.22-.422.625-.187.61-.187 1.328v3.532h-1.141zm12.657-3.657v-1.078l3.937-.015v3.453q-.906.719-1.875 1.094-.953.359-1.968.359-1.375 0-2.5-.578-1.125-.594-1.703-1.703-.563-1.11-.563-2.485 0-1.359.563-2.53.578-1.188 1.64-1.75 1.078-.579 2.453-.579 1.016 0 1.828.328.813.328 1.282.922.468.578.703 1.516l-1.11.296q-.203-.703-.515-1.109-.313-.406-.89-.64-.579-.25-1.282-.25-.844 0-1.469.265-.61.25-.984.672-.375.406-.594.906-.344.875-.344 1.875 0 1.25.422 2.094.422.828 1.235 1.234.828.407 1.75.407.796 0 1.562-.297.766-.313 1.156-.672v-1.735h-2.734zm10.258 2.829q-.625.53-1.22.765-.577.219-1.25.219-1.124 0-1.718-.547-.594-.547-.594-1.39 0-.485.22-.891.234-.422.593-.672.375-.25.828-.375.328-.078 1.016-.172 1.375-.156 2.03-.39.017-.235.017-.297 0-.704-.329-.985-.437-.39-1.296-.39-.813 0-1.204.28-.375.282-.562 1l-1.11-.14q.141-.719.485-1.156.36-.453 1.016-.688.671-.234 1.53-.234.876 0 1.407.203.547.203.797.516.25.297.36.765.046.297.046 1.063v1.516q0 1.593.078 2.015.078.422.282.813h-1.188q-.172-.36-.234-.828zm-.094-2.563q-.625.266-1.86.438-.703.109-1 .234-.296.125-.453.375-.156.234-.156.531 0 .453.344.766.344.297 1.016.297.656 0 1.171-.282.516-.296.766-.796.172-.375.172-1.141v-.422zm5.615 2.375l.157 1q-.485.11-.86.11-.625 0-.968-.204-.344-.203-.485-.515-.14-.328-.14-1.344v-3.89h-.829v-.876h.829v-1.672l1.14-.687v2.36h1.156v.874h-1.156v3.953q0 .485.063.625.062.141.187.22.14.077.39.077.204 0 .516-.03zm5.813-1.156l1.187.14q-.28 1.047-1.047 1.625-.75.563-1.921.563-1.485 0-2.36-.906-.86-.922-.86-2.563 0-1.703.876-2.64.89-.938 2.281-.938 1.36 0 2.203.922.86.922.86 2.578v.313h-5.032q.063 1.109.625 1.703.563.593 1.407.593.64 0 1.078-.328.453-.343.703-1.062zm-3.75-1.844h3.765q-.078-.86-.437-1.281-.547-.656-1.406-.656-.797 0-1.328.53-.532.516-.594 1.407zm7.787 4.016l-2.062-6.735h1.187l1.078 3.891.391 1.437q.031-.109.36-1.39l1.062-3.938h1.172l1.015 3.907.344 1.28.375-1.296 1.156-3.89h1.11l-2.11 6.734h-1.171l-1.079-4.032-.265-1.156-1.36 5.188h-1.203zm12.782-.828q-.625.53-1.219.765-.578.219-1.25.219-1.125 0-1.719-.547-.594-.547-.594-1.39 0-.485.22-.891.234-.422.593-.672.375-.25.828-.375.328-.078 1.016-.172 1.375-.156 2.031-.39.016-.235.016-.297 0-.704-.329-.985-.437-.39-1.296-.39-.813 0-1.204.28-.375.282-.562 1l-1.11-.14q.141-.719.485-1.156.36-.453 1.016-.688.671-.234 1.53-.234.876 0 1.407.203.547.203.797.516.25.297.36.765.046.297.046 1.063v1.516q0 1.593.078 2.015.078.422.282.813h-1.188q-.172-.36-.234-.828zm-.094-2.563q-.625.266-1.86.438-.703.109-1 .234-.296.125-.453.375-.156.234-.156.531 0 .453.344.766.344.297 1.016.297.656 0 1.171-.282.516-.296.766-.796.172-.375.172-1.141v-.422zm3.069 5.984l-.14-1.062q.374.094.655.094.39 0 .61-.125.234-.125.375-.36.11-.172.36-.843l.093-.282-2.563-6.75h1.235l1.406 3.891q.266.75.484 1.562.203-.78.47-1.53l1.452-3.923h1.14l-2.562 6.844q-.422 1.11-.64 1.531-.313.563-.703.828-.391.266-.938.266-.328 0-.734-.14z"/><path d="M65.047 163.587H167.41v36.126H65.047z"/><path fill="#000" d="M75.266 187.947v-11.453h1.562l6.016 8.985v-8.985h1.453v11.453h-1.562l-6.016-9v9h-1.453zm17.07-2.671l1.453.171q-.343 1.282-1.28 1.985-.923.703-2.36.703-1.828 0-2.89-1.125-1.063-1.125-1.063-3.14 0-2.094 1.078-3.25 1.078-1.157 2.797-1.157 1.656 0 2.703 1.14 1.062 1.126 1.062 3.173v.375H87.65q.078 1.375.765 2.109.704.719 1.735.719.781 0 1.328-.407.547-.406.86-1.296zm-4.61-2.282h4.626q-.094-1.047-.531-1.562-.672-.813-1.735-.813-.968 0-1.64.657-.657.64-.72 1.718zm10.9 3.688l.202 1.25q-.593.125-1.062.125-.766 0-1.188-.235-.421-.25-.593-.64-.172-.406-.172-1.672v-4.766h-1.031v-1.093h1.03v-2.063l1.407-.844v2.907h1.406v1.093H97.22v4.844q0 .61.063.781.078.172.25.282.171.093.484.093.234 0 .61-.062zm2.913 1.265l-2.546-8.296h1.453l1.328 4.78.484 1.782q.031-.125.438-1.703l1.312-4.86h1.453l1.235 4.813.422 1.578.468-1.594 1.422-4.796h1.375l-2.594 8.296h-1.468l-1.313-4.968-.328-1.422-1.672 6.39h-1.469zm9.493-4.156q0-2.297 1.28-3.406 1.079-.922 2.61-.922 1.719 0 2.797 1.125 1.094 1.11 1.094 3.094 0 1.594-.485 2.515-.484.922-1.406 1.438-.906.5-2 .5-1.734 0-2.812-1.11-1.078-1.124-1.078-3.234zm1.453 0q0 1.594.687 2.39.703.798 1.75.798 1.047 0 1.735-.797.703-.797.703-2.438 0-1.53-.703-2.328-.688-.797-1.735-.797-1.047 0-1.75.797-.687.781-.687 2.375zm7.96 4.156v-8.296h1.266v1.25q.485-.875.89-1.157.407-.28.907-.28.703 0 1.438.452l-.485 1.297q-.515-.297-1.031-.297-.453 0-.828.281-.36.266-.516.766-.234.75-.234 1.64v4.344h-1.406zm5.344 0v-11.453h1.407v6.532l3.328-3.375h1.828l-3.172 3.078 3.484 5.218h-1.734l-2.734-4.25-1 .954v3.296h-1.407z"/><path fill="#c00" d="M316.869 388.012h32.063v24.787h-32.063z"/><path stroke="#000" stroke-width="2" stroke-linejoin="round" stroke-linecap="butt" d="M316.869 388.012h32.063v24.787h-32.063z"/><path d="M439.21 326.727l-.567-58.3"/><path stroke="#000" stroke-width="2" stroke-linejoin="round" stroke-linecap="butt" d="M439.21 326.727l-.567-58.3"/><path fill="#c00" d="M511.572 387.973h32.063v24.788h-32.063z"/><path stroke="#000" stroke-width="2" stroke-linejoin="round" stroke-linecap="butt" d="M511.572 387.973h32.063v24.788h-32.063z"/><path d="M527.604 387.973l-.599-63.244"/><path stroke="#000" stroke-width="2" stroke-linejoin="round" stroke-linecap="butt" d="M527.604 387.973l-.599-63.244"/><path d="M48.741 526.05h102.363v36.125H48.74z"/><path fill="#000" d="M59.007 550.41v-11.454h5.078q1.531 0 2.328.313.797.296 1.266 1.078.484.781.484 1.734 0 1.219-.797 2.063-.78.828-2.437 1.046.61.297.922.579.656.609 1.25 1.515l2 3.125h-1.906l-1.516-2.39q-.672-1.032-1.11-1.579-.421-.546-.765-.765-.328-.219-.688-.297-.25-.063-.843-.063h-1.75v5.094h-1.516zm1.516-6.407h3.25q1.047 0 1.625-.203.593-.219.89-.688.313-.484.313-1.03 0-.813-.594-1.329-.594-.531-1.86-.531h-3.624v3.781zm15.507 3.734l1.454.172q-.344 1.281-1.282 1.985-.922.703-2.359.703-1.828 0-2.89-1.125-1.063-1.125-1.063-3.14 0-2.095 1.078-3.25 1.078-1.157 2.797-1.157 1.656 0 2.703 1.14 1.062 1.125 1.062 3.172v.375h-6.187q.078 1.375.766 2.11.703.718 1.734.718.781 0 1.328-.406t.86-1.297zm-4.609-2.28h4.625q-.094-1.048-.531-1.563-.672-.813-1.735-.813-.968 0-1.64.656-.656.641-.719 1.72zm7.57 5.64l1.375.203q.079.64.47.922.53.39 1.437.39.968 0 1.5-.39.53-.39.718-1.094.11-.422.11-1.813-.922 1.094-2.297 1.094-1.719 0-2.656-1.234-.938-1.235-.938-2.969 0-1.187.422-2.187.438-1 1.25-1.547.828-.547 1.922-.547 1.469 0 2.422 1.187v-1h1.297v7.172q0 1.938-.391 2.75-.39.813-1.25 1.281-.86.47-2.11.47-1.484 0-2.406-.673-.906-.672-.875-2.015zm1.172-4.985q0 1.625.64 2.375.657.75 1.626.75.969 0 1.625-.734.656-.75.656-2.344 0-1.531-.672-2.297-.672-.78-1.625-.78-.937 0-1.593.765-.657.765-.657 2.265zm7.992-5.547v-1.609h1.407v1.61h-1.407zm0 9.844v-8.297h1.407v8.297h-1.407zm3.024-4.156q0-2.297 1.281-3.406 1.078-.922 2.61-.922 1.718 0 2.796 1.125 1.094 1.11 1.094 3.094 0 1.593-.484 2.515-.485.922-1.406 1.438-.907.5-2 .5-1.735 0-2.813-1.11-1.078-1.125-1.078-3.234zm1.453 0q0 1.594.688 2.39.703.797 1.75.797 1.046 0 1.734-.796.703-.797.703-2.438 0-1.531-.703-2.328-.688-.797-1.734-.797-1.047 0-1.75.797-.688.781-.688 2.375zm7.977 4.156v-8.297h1.265v1.172q.906-1.36 2.64-1.36.75 0 1.376.266.625.266.937.704.313.437.438 1.046.078.391.078 1.36v5.11h-1.406v-5.048q0-.859-.172-1.28-.156-.438-.578-.688-.407-.25-.969-.25-.906 0-1.563.578-.64.562-.64 2.156v4.531h-1.406zm18.25 0h-1.407v-8.969q-.515.485-1.343.97-.813.484-1.47.734v-1.36q1.173-.562 2.048-1.344.89-.796 1.265-1.53h.907v11.5z"/><path d="M336.832 524.558h102.362v36.126H336.832z"/><path fill="#000" d="M347.098 548.918v-11.453h5.078q1.531 0 2.328.313.797.297 1.266 1.078.484.781.484 1.734 0 1.219-.797 2.063-.781.828-2.437 1.047.609.296.921.578.657.61 1.25 1.515l2 3.125h-1.906l-1.515-2.39q-.672-1.032-1.11-1.578-.422-.547-.765-.766-.329-.219-.688-.297-.25-.062-.844-.062h-1.75v5.093h-1.515zm1.515-6.406h3.25q1.047 0 1.625-.203.594-.219.891-.688.312-.484.312-1.03 0-.813-.593-1.329-.594-.531-1.86-.531h-3.625v3.781zm15.508 3.734l1.453.172q-.343 1.282-1.281 1.985-.922.703-2.36.703-1.827 0-2.89-1.125-1.062-1.125-1.062-3.14 0-2.095 1.078-3.25 1.078-1.157 2.797-1.157 1.656 0 2.703 1.14 1.062 1.126 1.062 3.172v.375h-6.187q.078 1.375.765 2.11.703.719 1.735.719.78 0 1.328-.407.547-.406.86-1.297zm-4.61-2.28h4.626q-.094-1.048-.531-1.563-.672-.813-1.735-.813-.969 0-1.64.656-.657.641-.72 1.72zm7.571 5.64l1.375.203q.078.64.469.922.531.39 1.437.39.97 0 1.5-.39.532-.39.72-1.094.108-.422.108-1.812-.921 1.093-2.296 1.093-1.72 0-2.657-1.234t-.937-2.969q0-1.187.422-2.187.437-1 1.25-1.547.828-.547 1.922-.547 1.468 0 2.421 1.187v-1h1.297v7.172q0 1.938-.39 2.75-.39.813-1.25 1.282-.86.468-2.11.468-1.484 0-2.406-.672-.906-.671-.875-2.015zm1.172-4.985q0 1.625.64 2.375.657.75 1.626.75.968 0 1.625-.734.656-.75.656-2.344 0-1.53-.672-2.297-.672-.78-1.625-.78-.938 0-1.594.765-.656.765-.656 2.265zm7.992-5.546v-1.61h1.406v1.61h-1.406zm0 9.843v-8.297h1.406v8.297h-1.406zm3.024-4.156q0-2.297 1.28-3.406 1.079-.922 2.61-.922 1.719 0 2.797 1.125 1.094 1.11 1.094 3.094 0 1.593-.485 2.515-.484.922-1.406 1.438-.906.5-2 .5-1.734 0-2.812-1.11-1.078-1.125-1.078-3.234zm1.453 0q0 1.594.687 2.39.703.798 1.75.798 1.047 0 1.735-.797.703-.797.703-2.438 0-1.531-.703-2.328-.688-.797-1.735-.797-1.047 0-1.75.797-.687.781-.687 2.375zm7.976 4.156v-8.297h1.266v1.172q.906-1.359 2.64-1.359.75 0 1.376.266.625.265.937.703.313.437.438 1.047.078.39.078 1.359v5.11h-1.407v-5.048q0-.859-.171-1.28-.157-.438-.579-.688-.406-.25-.968-.25-.907 0-1.563.578-.64.562-.64 2.156v4.531h-1.407zm20.344-1.359v1.36h-7.578q-.016-.516.172-.985.281-.766.922-1.516.64-.75 1.843-1.734 1.86-1.531 2.516-2.422.656-.906.656-1.703 0-.828-.593-1.406-.594-.578-1.563-.578-1.016 0-1.625.609-.61.61-.61 1.687l-1.452-.14q.156-1.625 1.125-2.469.968-.844 2.593-.844 1.657 0 2.61.922.968.906.968 2.25 0 .688-.28 1.36-.282.656-.938 1.39-.657.735-2.172 2.016-1.266 1.062-1.625 1.453-.36.375-.594.75h5.625z"/><path fill="#f4cccc" d="M416.69 245.499c0-12.664 9.83-22.93 21.953-22.93 5.823 0 11.406 2.416 15.523 6.716 4.117 4.3 6.43 10.133 6.43 16.214 0 12.663-9.828 22.929-21.953 22.929-12.124 0-21.952-10.266-21.952-22.93z"/><path d="M423.12 229.285l31.046 32.427m0-32.427l-31.046 32.427m-6.43-16.213c0-12.664 9.83-22.93 21.953-22.93 5.823 0 11.406 2.416 15.523 6.716 4.117 4.3 6.43 10.133 6.43 16.214 0 12.663-9.828 22.929-21.953 22.929-12.124 0-21.952-10.266-21.952-22.93z"/><path stroke="#000" stroke-width="2" stroke-linejoin="round" stroke-linecap="butt" d="M423.12 229.285l31.046 32.427m0-32.427l-31.046 32.427m-6.43-16.213c0-12.664 9.83-22.93 21.953-22.93 5.823 0 11.406 2.416 15.523 6.716 4.117 4.3 6.43 10.133 6.43 16.214 0 12.663-9.828 22.929-21.953 22.929-12.124 0-21.952-10.266-21.952-22.93z"/><path d="M460.611 222.57h82.709v53.826h-82.71z"/><path fill="#000" d="M473.267 244.37l-3.593-9.313h1.328l2.422 6.766q.28.812.484 1.531.219-.766.5-1.531l2.516-6.766h1.25l-3.641 9.313h-1.266zm6.093-7.985v-1.328h1.14v1.328h-1.14zm0 7.985v-6.735h1.14v6.735h-1.14zm2.946 0v-6.735h1.03v1.016q.392-.719.72-.938.343-.234.734-.234.578 0 1.172.36l-.39 1.062q-.423-.25-.829-.25-.375 0-.687.234-.297.219-.422.625-.188.61-.188 1.328v3.532h-1.14zm6.954-1.016l.156 1q-.484.11-.86.11-.624 0-.968-.204-.344-.203-.485-.515-.14-.329-.14-1.344v-3.89h-.828v-.876h.828v-1.672l1.14-.687v2.36h1.157v.874h-1.157v3.953q0 .485.063.625.062.141.187.22.141.077.391.077.203 0 .516-.031zm5.625 1.016v-.985q-.797 1.14-2.141 1.14-.594 0-1.125-.234-.516-.234-.766-.578-.25-.343-.343-.843-.079-.329-.079-1.063v-4.172h1.141v3.735q0 .89.078 1.203.11.453.453.718.344.25.86.25.515 0 .968-.265.454-.266.641-.719.188-.453.188-1.312v-3.61h1.14v6.735h-1.015zm7.38-.829q-.624.532-1.218.766-.578.219-1.25.219-1.125 0-1.719-.547-.593-.547-.593-1.39 0-.485.218-.891.235-.422.594-.672.375-.25.828-.375.328-.078 1.016-.172 1.375-.156 2.031-.39.016-.235.016-.298 0-.703-.328-.984-.438-.39-1.297-.39-.813 0-1.203.28-.375.282-.563 1l-1.11-.14q.141-.719.485-1.156.36-.453 1.016-.688.672-.234 1.53-.234.876 0 1.407.203.547.203.797.516.25.297.36.765.046.297.046 1.063v1.515q0 1.594.078 2.016.079.422.282.813H502.5q-.172-.36-.234-.829zm-.093-2.562q-.625.266-1.86.437-.702.11-1 .235-.296.125-.452.375-.157.234-.157.531 0 .453.344.766.344.297 1.016.297.656 0 1.172-.282.515-.297.765-.797.172-.375.172-1.14v-.422zm3.084 3.39v-9.312h1.141v9.313h-1.14zm-35.066 13.016l1.171-.11q.078.704.375 1.157.313.438.938.719.64.265 1.437.265.703 0 1.234-.203.547-.203.813-.562.266-.375.266-.813 0-.437-.266-.765-.25-.328-.828-.547-.375-.14-1.656-.453-1.282-.313-1.797-.578-.672-.344-1-.86-.328-.531-.328-1.172 0-.703.39-1.312.406-.61 1.172-.922.781-.328 1.719-.328 1.031 0 1.812.344.797.328 1.22.984.437.64.468 1.453l-1.188.094q-.093-.89-.64-1.328-.547-.453-1.625-.453-1.11 0-1.625.406-.516.406-.516.984 0 .5.36.828.359.328 1.859.672 1.5.328 2.062.578.813.375 1.188.953.39.579.39 1.329 0 .734-.421 1.39-.422.656-1.22 1.031-.796.36-1.796.36-1.266 0-2.125-.36-.844-.375-1.328-1.109-.485-.75-.516-1.672zm10.405 2.985l-2.063-6.735h1.188l1.078 3.89.39 1.438q.032-.109.36-1.39l1.062-3.938h1.172l1.016 3.906.343 1.282.375-1.297 1.157-3.89h1.11l-2.11 6.734H484.5l-1.078-4.032-.266-1.156-1.36 5.188h-1.202zm8.39-7.985v-1.328h1.141v1.328h-1.14zm0 7.985v-6.735h1.141v6.735h-1.14zm5.461-1.016l.157 1q-.485.11-.86.11-.625 0-.968-.204-.344-.203-.485-.515-.14-.329-.14-1.344v-3.89h-.829v-.876h.829v-1.672l1.14-.687v2.36h1.156v.874h-1.156v3.953q0 .485.063.625.062.141.187.22.14.077.39.077.204 0 .516-.031zm5.594-1.453l1.125.14q-.172 1.172-.937 1.829-.766.656-1.86.656-1.39 0-2.234-.906-.828-.907-.828-2.594 0-1.094.36-1.906.358-.829 1.093-1.235.734-.406 1.61-.406 1.093 0 1.796.562.703.547.89 1.563l-1.109.172q-.156-.672-.562-1.016-.39-.344-.969-.344-.86 0-1.406.625-.531.61-.531 1.954 0 1.359.515 1.984.516.61 1.36.61.671 0 1.125-.407.453-.422.562-1.281zm2.273 2.469v-9.313h1.141v3.344q.797-.922 2.016-.922.75 0 1.297.297.562.297.796.812.235.516.235 1.516v4.266h-1.14v-4.266q0-.86-.376-1.25-.36-.39-1.047-.39-.5 0-.953.265-.453.25-.64.703-.188.453-.188 1.25v3.688h-1.14z"/><path fill="#c00" d="M62.648 411.436h32.063v24.787H62.648z"/><path stroke="#000" stroke-width="2" stroke-linejoin="round" stroke-linecap="butt" d="M62.648 411.436h32.063v24.787H62.648z"/><path d="M78.897 413.654l.22-85.67"/><path stroke="#000" stroke-width="2" stroke-linejoin="round" stroke-linecap="butt" d="M78.897 413.654l.22-85.67"/><path d="M79.099 327.984l787.18-5.007"/><path stroke="#000" stroke-width="2" stroke-linejoin="round" stroke-linecap="butt" d="M79.099 327.984l787.18-5.007"/><path fill="#c00" d="M145.195 411.397h32.063v24.788h-32.063z"/><path stroke="#000" stroke-width="2" stroke-linejoin="round" stroke-linecap="butt" d="M145.195 411.397h32.063v24.788h-32.063z"/><path d="M161.227 411.397l-.599-84.567"/><path stroke="#000" stroke-width="2" stroke-linejoin="round" stroke-linecap="butt" d="M161.227 411.397l-.599-84.567"/><path fill="#c00" d="M645.728 387.973h32.063v24.788h-32.063z"/><path stroke="#000" stroke-width="2" stroke-linejoin="round" stroke-linecap="butt" d="M645.728 387.973h32.063v24.788h-32.063z"/><path d="M660.947 385.893l.567-60.157"/><path stroke="#000" stroke-width="2" stroke-linejoin="round" stroke-linecap="butt" d="M660.947 385.893l.567-60.157"/><path fill="#c00" d="M848.04 386.724h32.063v24.787h-32.062z"/><path stroke="#000" stroke-width="2" stroke-linejoin="round" stroke-linecap="butt" d="M848.04 386.724h32.063v24.787h-32.062z"/><path d="M864.324 385.893l-.44-64.157"/><path stroke="#000" stroke-width="2" stroke-linejoin="round" stroke-linecap="butt" d="M864.324 385.893l-.44-64.157"/><path d="M20.185 431.875h102.362v36.126H20.185z"/><path fill="#000" d="M35.153 456.235h-1.406v-8.969q-.515.485-1.344.969-.812.484-1.468.734v-1.359q1.172-.563 2.047-1.344.89-.797 1.265-1.531h.906v11.5zm3.602-5.656q0-2.031.406-3.266.422-1.234 1.25-1.906.828-.672 2.078-.672.922 0 1.61.375.703.36 1.156 1.063.453.703.703 1.703.266 1 .266 2.703 0 2.015-.422 3.265-.406 1.235-1.234 1.922-.829.672-2.079.672-1.656 0-2.609-1.203-1.125-1.422-1.125-4.656zm1.438 0q0 2.828.656 3.765.672.922 1.64.922.97 0 1.625-.937.657-.938.657-3.75 0-2.828-.657-3.75-.656-.938-1.64-.938-.969 0-1.547.828-.734 1.047-.734 3.86zm8.242 5.656v-1.61h1.61v1.61h-1.61zm11.054-1.36v1.36h-7.578q-.015-.516.172-.984.281-.766.922-1.516.64-.75 1.844-1.734 1.86-1.532 2.515-2.422.657-.906.657-1.703 0-.828-.594-1.407-.594-.578-1.563-.578-1.015 0-1.625.61-.609.609-.609 1.687l-1.453-.14q.156-1.625 1.125-2.47.969-.843 2.594-.843 1.656 0 2.61.922.968.906.968 2.25 0 .687-.281 1.36-.282.656-.938 1.39-.656.734-2.172 2.016-1.265 1.062-1.625 1.453-.36.375-.594.75h5.625zm6.008 1.36v-2.75h-4.969v-1.281l5.235-7.422h1.14v7.422h1.547v1.281h-1.547v2.75h-1.406zm0-4.031v-5.172l-3.578 5.172h3.578zm4.399-1.625q0-2.031.406-3.266.422-1.234 1.25-1.906.828-.672 2.078-.672.922 0 1.61.375.703.36 1.156 1.063.453.703.703 1.703.265 1 .265 2.703 0 2.015-.421 3.265-.407 1.235-1.235 1.922-.828.672-2.078.672-1.656 0-2.61-1.203-1.124-1.422-1.124-4.656zm1.437 0q0 2.828.656 3.765.672.922 1.641.922t1.625-.937q.656-.938.656-3.75 0-2.828-.656-3.75-.656-.938-1.64-.938-.97 0-1.547.828-.735 1.047-.735 3.86zm8.242 5.656v-1.61h1.61v1.61h-1.61zm8.961 0H87.13v-8.969q-.516.485-1.344.969-.812.484-1.468.734v-1.359q1.171-.563 2.046-1.344.891-.797 1.266-1.531h.906v11.5zm4.383 0v-1.61h1.61v1.61h-1.61zm3.664-3l1.469-.125q.172 1.078.766 1.625.593.531 1.437.531 1.016 0 1.719-.765.703-.766.703-2.032 0-1.203-.672-1.89-.672-.703-1.766-.703-.687 0-1.234.312-.547.313-.86.797l-1.312-.172 1.11-5.875h5.687v1.344h-4.562l-.625 3.078q1.03-.719 2.171-.719 1.5 0 2.532 1.047 1.03 1.031 1.03 2.656 0 1.563-.905 2.688-1.11 1.406-3.016 1.406-1.562 0-2.547-.875-.984-.89-1.125-2.328z"/><path d="M476.286 416.26H599.28v36.125H476.286z"/><path fill="#000" d="M491.255 440.62h-1.406v-8.97q-.516.485-1.344.97-.812.484-1.469.734v-1.36q1.172-.562 2.047-1.344.891-.796 1.266-1.53h.906v11.5zm3.602-5.657q0-2.031.406-3.266.422-1.234 1.25-1.906.828-.672 2.078-.672.922 0 1.61.375.703.36 1.156 1.063.453.703.703 1.703.266 1 .266 2.703 0 2.016-.422 3.266-.407 1.234-1.235 1.921-.828.672-2.078.672-1.656 0-2.61-1.203-1.124-1.422-1.124-4.656zm1.437 0q0 2.828.657 3.766.671.921 1.64.921.969 0 1.625-.937.656-.938.656-3.75 0-2.828-.656-3.75-.656-.938-1.64-.938-.97 0-1.547.829-.735 1.046-.735 3.859zm8.242 5.656v-1.61h1.61v1.61h-1.61zm11.055-1.36v1.36h-7.578q-.016-.515.172-.984.281-.766.922-1.516.64-.75 1.844-1.734 1.859-1.531 2.515-2.422.656-.906.656-1.703 0-.828-.593-1.406-.594-.579-1.563-.579-1.015 0-1.625.61-.61.61-.61 1.687l-1.452-.14q.156-1.625 1.125-2.47.968-.843 2.593-.843 1.657 0 2.61.922.969.906.969 2.25 0 .688-.282 1.36-.281.656-.937 1.39-.656.734-2.172 2.016-1.266 1.062-1.625 1.453-.36.375-.594.75h5.625zm6.008 1.36v-2.75h-4.969v-1.281l5.235-7.422h1.14v7.422h1.547v1.281h-1.547v2.75H521.6zm0-4.031v-5.172l-3.578 5.172h3.578zm4.398-1.625q0-2.031.407-3.266.422-1.234 1.25-1.906.828-.672 2.078-.672.922 0 1.61.375.702.36 1.155 1.063.454.703.704 1.703.265 1 .265 2.703 0 2.016-.422 3.266-.406 1.234-1.234 1.921-.828.672-2.078.672-1.656 0-2.61-1.203-1.125-1.422-1.125-4.656zm1.438 0q0 2.828.656 3.766.672.921 1.64.921.97 0 1.626-.937.656-.938.656-3.75 0-2.828-.656-3.75-.656-.938-1.64-.938-.97 0-1.548.829-.734 1.046-.734 3.859zm8.242 5.656v-1.61h1.61v1.61h-1.61zm8.164 0v-2.75h-4.969v-1.281l5.235-7.422h1.14v7.422h1.547v1.281h-1.547v2.75h-1.406zm0-4.031v-5.172l-3.578 5.172h3.578zm5.18 4.031v-1.61h1.61v1.61h-1.61zm8.96 0h-1.405v-8.969q-.516.485-1.344.97-.813.484-1.469.734v-1.36q1.172-.562 2.047-1.344.89-.796 1.266-1.53h.906v11.5zm10.9-8.656l-1.407.11q-.188-.829-.531-1.204-.563-.594-1.407-.594-.671 0-1.171.375-.672.485-1.063 1.422-.375.922-.39 2.64.515-.78 1.25-1.155.734-.375 1.53-.375 1.407 0 2.391 1.047 1 1.03 1 2.671 0 1.079-.468 2-.47.922-1.282 1.422-.812.5-1.843.5-1.75 0-2.86-1.297-1.11-1.296-1.11-4.265 0-3.328 1.22-4.828 1.078-1.313 2.89-1.313 1.344 0 2.203.766.875.75 1.047 2.078zm-5.75 4.937q0 .735.312 1.407.312.656.86 1 .562.343 1.17.343.892 0 1.532-.718.64-.72.64-1.953 0-1.188-.64-1.86-.625-.687-1.594-.687-.953 0-1.625.687-.656.672-.656 1.781z"/><path d="M120.941 434.368h102.363v36.125H120.94z"/><path fill="#000" d="M135.91 458.728h-1.406v-8.97q-.516.485-1.344.97-.812.484-1.469.734v-1.36q1.172-.562 2.047-1.343.89-.797 1.266-1.531h.906v11.5zm3.602-5.657q0-2.031.406-3.265.422-1.235 1.25-1.907.828-.671 2.078-.671.922 0 1.61.375.702.359 1.156 1.062.453.703.703 1.703.265 1 .265 2.703 0 2.016-.422 3.266-.406 1.234-1.234 1.922-.828.672-2.078.672-1.656 0-2.61-1.203-1.124-1.422-1.124-4.657zm1.437 0q0 2.828.656 3.766.672.922 1.641.922t1.625-.938q.656-.937.656-3.75 0-2.828-.656-3.75-.656-.937-1.64-.937-.97 0-1.548.828-.734 1.047-.734 3.86zm8.242 5.656v-1.609h1.61v1.61h-1.61zm11.055-1.359v1.36h-7.578q-.016-.516.172-.985.281-.765.922-1.515.64-.75 1.843-1.735 1.86-1.531 2.516-2.422.656-.906.656-1.703 0-.828-.594-1.406-.593-.578-1.562-.578-1.016 0-1.625.61-.61.608-.61 1.687l-1.453-.141q.157-1.625 1.125-2.469.97-.844 2.594-.844 1.656 0 2.61.922.968.907.968 2.25 0 .688-.28 1.36-.282.656-.938 1.39-.657.735-2.172 2.016-1.266 1.063-1.625 1.453-.36.375-.594.75h5.625zm6.008 1.36v-2.75h-4.969v-1.282l5.234-7.422h1.141v7.422h1.547v1.281h-1.547v2.75h-1.406zm0-4.032v-5.172l-3.578 5.172h3.578zm4.398-1.625q0-2.031.406-3.265.422-1.235 1.25-1.907.829-.671 2.079-.671.921 0 1.609.375.703.359 1.156 1.062.453.703.703 1.703.266 1 .266 2.703 0 2.016-.422 3.266-.406 1.234-1.234 1.922-.828.672-2.078.672-1.657 0-2.61-1.203-1.125-1.422-1.125-4.657zm1.438 0q0 2.828.656 3.766.672.922 1.64.922.97 0 1.626-.938.656-.937.656-3.75 0-2.828-.656-3.75-.657-.937-1.641-.937-.969 0-1.547.828-.734 1.047-.734 3.86zm8.242 5.656v-1.609h1.61v1.61h-1.61zm11.055-1.359v1.36h-7.579q-.015-.516.172-.985.282-.765.922-1.515.64-.75 1.844-1.735 1.86-1.531 2.516-2.422.656-.906.656-1.703 0-.828-.594-1.406t-1.562-.578q-1.016 0-1.625.61-.61.608-.61 1.687l-1.453-.141q.156-1.625 1.125-2.469.969-.844 2.594-.844 1.656 0 2.61.922.968.907.968 2.25 0 .688-.281 1.36-.282.656-.938 1.39-.656.735-2.172 2.016-1.265 1.063-1.625 1.453-.359.375-.593.75h5.625zm2.289 1.36v-1.61h1.61v1.61h-1.61zm8.96 0h-1.406v-8.97q-.515.485-1.343.97-.813.484-1.47.734v-1.36q1.173-.562 2.048-1.343.89-.797 1.265-1.531h.907v11.5z"/><path d="M281.4 414.576h102.36v36.126H281.4z"/><path fill="#000" d="M296.368 438.936h-1.406v-8.969q-.516.485-1.344.97-.813.484-1.469.734v-1.36q1.172-.562 2.047-1.344.89-.796 1.266-1.53h.906v11.5zm3.602-5.656q0-2.031.406-3.266.422-1.234 1.25-1.906.828-.672 2.078-.672.922 0 1.61.375.702.36 1.156 1.063.453.703.703 1.703.265 1 .265 2.703 0 2.016-.422 3.266-.406 1.234-1.234 1.921-.828.672-2.078.672-1.656 0-2.61-1.203-1.124-1.422-1.124-4.656zm1.437 0q0 2.828.656 3.766.672.921 1.64.921.97 0 1.626-.937.656-.938.656-3.75 0-2.828-.656-3.75-.656-.938-1.64-.938-.97 0-1.548.829-.734 1.046-.734 3.859zm8.242 5.656v-1.61h1.61v1.61h-1.61zm11.055-1.36v1.36h-7.578q-.016-.515.172-.984.28-.766.922-1.516.64-.75 1.843-1.734 1.86-1.531 2.516-2.422.656-.906.656-1.703 0-.828-.594-1.406-.593-.579-1.562-.579-1.016 0-1.625.61-.61.61-.61 1.687l-1.453-.14q.157-1.625 1.125-2.47.97-.843 2.594-.843 1.656 0 2.61.922.968.906.968 2.25 0 .688-.281 1.36-.281.656-.937 1.39-.657.734-2.172 2.016-1.266 1.062-1.625 1.453-.36.375-.594.75h5.625zm6.008 1.36v-2.75h-4.969v-1.281l5.234-7.422h1.141v7.422h1.547v1.281h-1.547v2.75h-1.406zm0-4.031v-5.172l-3.578 5.172h3.578zm4.398-1.625q0-2.031.406-3.266.422-1.234 1.25-1.906.829-.672 2.079-.672.921 0 1.609.375.703.36 1.156 1.063.453.703.703 1.703.266 1 .266 2.703 0 2.016-.422 3.266-.406 1.234-1.234 1.921-.828.672-2.078.672-1.657 0-2.61-1.203-1.125-1.422-1.125-4.656zm1.438 0q0 2.828.656 3.766.672.921 1.64.921.97 0 1.626-.937.656-.938.656-3.75 0-2.828-.656-3.75-.657-.938-1.641-.938-.969 0-1.547.829-.734 1.046-.734 3.859zm8.242 5.656v-1.61h1.61v1.61h-1.61zm3.664-5.656q0-2.031.406-3.266.422-1.234 1.25-1.906.828-.672 2.078-.672.922 0 1.61.375.703.36 1.156 1.063.453.703.703 1.703.266 1 .266 2.703 0 2.016-.422 3.266-.406 1.234-1.235 1.921-.828.672-2.078.672-1.656 0-2.61-1.203-1.124-1.422-1.124-4.656zm1.437 0q0 2.828.657 3.766.672.921 1.64.921.969 0 1.625-.937.657-.938.657-3.75 0-2.828-.657-3.75-.656-.938-1.64-.938-.97 0-1.547.829-.735 1.046-.735 3.859zm8.243 5.656v-1.61h1.609v1.61h-1.61zm8.96 0h-1.406v-8.969q-.515.485-1.343.97-.813.484-1.47.734v-1.36q1.173-.562 2.048-1.344.89-.796 1.265-1.53h.907v11.5z"/><path d="M610.864 412.019h102.362v36.126H610.864z"/><path fill="#000" d="M625.833 436.379h-1.406v-8.969q-.516.485-1.344.969-.813.484-1.469.734v-1.36q1.172-.562 2.047-1.343.89-.797 1.266-1.531h.906v11.5zm3.601-5.656q0-2.032.407-3.266.421-1.234 1.25-1.906.828-.672 2.078-.672.922 0 1.61.375.702.36 1.155 1.062.453.704.703 1.704.266 1 .266 2.703 0 2.015-.422 3.265-.406 1.235-1.234 1.922-.828.672-2.078.672-1.657 0-2.61-1.203-1.125-1.422-1.125-4.656zm1.438 0q0 2.828.656 3.765.672.922 1.64.922.97 0 1.626-.937.656-.938.656-3.75 0-2.828-.656-3.75-.657-.938-1.64-.938-.97 0-1.548.828-.734 1.047-.734 3.86zm8.242 5.656v-1.61h1.61v1.61h-1.61zm11.055-1.36v1.36h-7.578q-.016-.516.171-.984.282-.766.922-1.516.641-.75 1.844-1.734 1.86-1.532 2.516-2.422.656-.907.656-1.703 0-.829-.594-1.407-.594-.578-1.562-.578-1.016 0-1.625.61-.61.609-.61 1.687l-1.453-.14q.156-1.626 1.125-2.47.969-.843 2.594-.843 1.656 0 2.61.922.968.906.968 2.25 0 .687-.281 1.36-.281.655-.938 1.39-.656.734-2.172 2.015-1.265 1.063-1.625 1.454-.359.375-.593.75h5.625zm6.008 1.36v-2.75h-4.97v-1.281l5.235-7.422h1.14v7.422h1.548v1.28h-1.547v2.75h-1.406zm0-4.031v-5.172l-3.579 5.172h3.579zm4.398-1.625q0-2.032.406-3.266.422-1.234 1.25-1.906.828-.672 2.078-.672.922 0 1.61.375.703.36 1.156 1.062.453.704.703 1.704.266 1 .266 2.703 0 2.015-.422 3.265-.406 1.235-1.235 1.922-.828.672-2.078.672-1.656 0-2.609-1.203-1.125-1.422-1.125-4.656zm1.437 0q0 2.828.657 3.765.672.922 1.64.922.97 0 1.625-.937.657-.938.657-3.75 0-2.828-.657-3.75-.656-.938-1.64-.938-.969 0-1.547.828-.735 1.047-.735 3.86zm8.243 5.656v-1.61h1.61v1.61h-1.61zm8.96 0h-1.406v-8.969q-.515.485-1.343.969-.813.484-1.47.734v-1.36q1.173-.562 2.048-1.343.89-.797 1.265-1.531h.907v11.5zm4.383 0v-1.61h1.61v1.61h-1.61zm10.961-8.656l-1.406.109q-.187-.828-.531-1.203-.563-.594-1.406-.594-.672 0-1.172.375-.672.485-1.063 1.422-.375.922-.39 2.64.515-.78 1.25-1.156.734-.375 1.53-.375 1.407 0 2.391 1.047 1 1.032 1 2.672 0 1.078-.468 2-.469.922-1.282 1.422-.812.5-1.843.5-1.75 0-2.86-1.297-1.109-1.297-1.109-4.265 0-3.329 1.219-4.829 1.078-1.312 2.89-1.312 1.344 0 2.203.766.875.75 1.047 2.078zm-5.75 4.937q0 .735.313 1.406.312.657.86 1 .562.344 1.171.344.89 0 1.531-.719.641-.718.641-1.953 0-1.187-.64-1.86-.626-.687-1.594-.687-.954 0-1.625.688-.657.672-.657 1.781z"/><path d="M805.428 412.019H907.79v36.126H805.428z"/><path fill="#000" d="M820.397 436.379h-1.407v-8.969q-.515.485-1.343.969-.813.484-1.47.734v-1.36q1.173-.562 2.048-1.343.89-.797 1.265-1.531h.907v11.5zm3.601-5.656q0-2.032.406-3.266.422-1.234 1.25-1.906.829-.672 2.079-.672.921 0 1.609.375.703.36 1.156 1.062.453.704.703 1.704.266 1 .266 2.703 0 2.015-.422 3.265-.406 1.235-1.234 1.922-.828.672-2.078.672-1.657 0-2.61-1.203-1.125-1.422-1.125-4.656zm1.438 0q0 2.828.656 3.765.672.922 1.64.922.97 0 1.626-.937.656-.938.656-3.75 0-2.828-.656-3.75-.657-.938-1.641-.938-.969 0-1.547.828-.734 1.047-.734 3.86zm8.242 5.656v-1.61h1.61v1.61h-1.61zm11.055-1.36v1.36h-7.579q-.015-.516.172-.984.282-.766.922-1.516.64-.75 1.844-1.734 1.86-1.532 2.516-2.422.656-.907.656-1.703 0-.829-.594-1.407-.594-.578-1.562-.578-1.016 0-1.625.61-.61.609-.61 1.687l-1.453-.14q.156-1.626 1.125-2.47.969-.843 2.594-.843 1.656 0 2.61.922.968.906.968 2.25 0 .687-.281 1.36-.282.655-.938 1.39-.656.734-2.172 2.015-1.265 1.063-1.625 1.454-.359.375-.593.75h5.625zm6.007 1.36v-2.75h-4.968v-1.281l5.234-7.422h1.14v7.422h1.548v1.28h-1.547v2.75h-1.407zm0-4.031v-5.172l-3.578 5.172h3.578zm4.399-1.625q0-2.032.406-3.266.422-1.234 1.25-1.906.828-.672 2.078-.672.922 0 1.61.375.703.36 1.156 1.062.453.704.703 1.704.266 1 .266 2.703 0 2.015-.422 3.265-.407 1.235-1.235 1.922-.828.672-2.078.672-1.656 0-2.61-1.203-1.124-1.422-1.124-4.656zm1.437 0q0 2.828.657 3.765.671.922 1.64.922.969 0 1.625-.937.656-.938.656-3.75 0-2.828-.656-3.75-.656-.938-1.64-.938-.97 0-1.547.828-.735 1.047-.735 3.86zm8.243 5.656v-1.61h1.609v1.61h-1.61zm8.164 0v-2.75h-4.97v-1.281l5.235-7.422h1.14v7.422h1.548v1.28h-1.547v2.75h-1.406zm0-4.031v-5.172l-3.579 5.172h3.579zm5.18 4.03v-1.608h1.609v1.609h-1.61zm8.96 0h-1.406v-8.968q-.516.485-1.344.969-.812.484-1.469.734v-1.36q1.172-.562 2.047-1.343.891-.797 1.266-1.531h.906v11.5z"/><path d="M332.9 388.012v-63.78"/><path stroke="#000" stroke-width="2" stroke-linejoin="round" stroke-linecap="butt" d="M332.9 388.012v-63.78"/><path fill="#c00" d="M406.893 387.973h32.063v24.788h-32.063z"/><path stroke="#000" stroke-width="2" stroke-linejoin="round" stroke-linecap="butt" d="M406.893 387.973h32.063v24.788h-32.063z"/><path d="M422.924 387.973l-.598-63.244"/><path stroke="#000" stroke-width="2" stroke-linejoin="round" stroke-linecap="butt" d="M422.924 387.973l-.598-63.244"/><path fill="#c00" d="M735.453 383.913h32.063v24.788h-32.063z"/><path stroke="#000" stroke-width="2" stroke-linejoin="round" stroke-linecap="butt" d="M735.453 383.913h32.063v24.788h-32.063z"/><path d="M750.672 381.833l.567-60.157"/><path stroke="#000" stroke-width="2" stroke-linejoin="round" stroke-linecap="butt" d="M750.672 381.833l.567-60.157"/><path d="M371.607 414.96H494.6v36.126H371.607z"/><path fill="#000" d="M386.576 439.32h-1.406v-8.968q-.516.484-1.344.968-.812.485-1.469.735v-1.36q1.172-.562 2.047-1.343.89-.797 1.266-1.532h.906v11.5zm3.602-5.656q0-2.031.406-3.265.422-1.235 1.25-1.907.828-.672 2.078-.672.922 0 1.61.375.703.36 1.156 1.063.453.703.703 1.703.265 1 .265 2.703 0 2.016-.421 3.266-.407 1.234-1.235 1.922-.828.672-2.078.672-1.656 0-2.61-1.204-1.124-1.421-1.124-4.656zm1.437 0q0 2.828.656 3.766.672.922 1.641.922t1.625-.938q.656-.937.656-3.75 0-2.828-.656-3.75-.656-.937-1.64-.937-.97 0-1.547.828-.735 1.047-.735 3.86zm8.242 5.656v-1.609h1.61v1.61h-1.61zm11.055-1.359v1.36h-7.578q-.016-.516.172-.985.281-.766.922-1.516.64-.75 1.843-1.734 1.86-1.531 2.516-2.422.656-.906.656-1.703 0-.828-.593-1.406-.594-.578-1.563-.578-1.016 0-1.625.61-.61.608-.61 1.687l-1.452-.141q.156-1.625 1.125-2.469.968-.844 2.593-.844 1.657 0 2.61.922.968.907.968 2.25 0 .688-.28 1.36-.282.656-.938 1.39-.657.735-2.172 2.016-1.266 1.062-1.625 1.453-.36.375-.594.75h5.625zm6.008 1.36v-2.75h-4.969v-1.282l5.235-7.422h1.14v7.422h1.547v1.281h-1.547v2.75h-1.406zm0-4.032v-5.172l-3.578 5.172h3.578zm4.398-1.625q0-2.031.407-3.265.421-1.235 1.25-1.907.828-.672 2.078-.672.922 0 1.61.375.702.36 1.155 1.063.453.703.703 1.703.266 1 .266 2.703 0 2.016-.422 3.266-.406 1.234-1.234 1.922-.828.672-2.078.672-1.657 0-2.61-1.204-1.125-1.421-1.125-4.656zm1.438 0q0 2.828.656 3.766.672.922 1.64.922.97 0 1.626-.938.656-.937.656-3.75 0-2.828-.656-3.75-.657-.937-1.64-.937-.97 0-1.548.828-.734 1.047-.734 3.86zm8.242 5.656v-1.609h1.61v1.61h-1.61zm8.961 0h-1.406v-8.968q-.516.484-1.344.968-.813.485-1.469.735v-1.36q1.172-.562 2.047-1.343.89-.797 1.266-1.532h.906v11.5zm4.383 0v-1.609h1.61v1.61h-1.61zm8.164 0v-2.75h-4.969v-1.28l5.234-7.423h1.141v7.422h1.547v1.281h-1.547v2.75h-1.406zm0-4.03v-5.173l-3.578 5.172h3.578z"/><path d="M700.589 410.77h102.362v36.126H700.59z"/><path fill="#000" d="M715.558 435.13h-1.407v-8.97q-.515.485-1.343.97-.813.484-1.469.734v-1.36q1.172-.562 2.047-1.343.89-.797 1.265-1.531h.907v11.5zm3.601-5.657q0-2.03.407-3.265.421-1.235 1.25-1.907.828-.671 2.078-.671.922 0 1.61.375.702.359 1.155 1.062.453.703.703 1.703.266 1 .266 2.703 0 2.016-.422 3.266-.406 1.234-1.234 1.922-.828.672-2.078.672-1.657 0-2.61-1.203-1.125-1.422-1.125-4.657zm1.438 0q0 2.828.656 3.766.672.922 1.64.922.97 0 1.626-.938.656-.937.656-3.75 0-2.828-.656-3.75-.657-.937-1.64-.937-.97 0-1.548.828-.734 1.047-.734 3.86zm8.242 5.657v-1.61h1.61v1.61h-1.61zm11.055-1.36v1.36h-7.578q-.016-.516.171-.985.282-.765.922-1.515.64-.75 1.844-1.735 1.86-1.531 2.516-2.422.656-.906.656-1.703 0-.828-.594-1.406t-1.562-.578q-1.016 0-1.625.61-.61.609-.61 1.687l-1.453-.14q.156-1.626 1.125-2.47.969-.843 2.594-.843 1.656 0 2.61.921.968.907.968 2.25 0 .688-.281 1.36-.281.656-.938 1.39-.656.735-2.172 2.016-1.265 1.063-1.625 1.453-.359.375-.593.75h5.625zm6.007 1.36v-2.75h-4.968v-1.282l5.234-7.422h1.14v7.422h1.548v1.282h-1.547v2.75H745.9zm0-4.032v-5.172l-3.578 5.172h3.578zm4.399-1.625q0-2.03.406-3.265.422-1.235 1.25-1.907.828-.671 2.078-.671.922 0 1.61.375.703.359 1.156 1.062.453.703.703 1.703.266 1 .266 2.703 0 2.016-.422 3.266-.406 1.234-1.235 1.922-.828.672-2.078.672-1.656 0-2.61-1.203-1.124-1.422-1.124-4.657zm1.437 0q0 2.828.657 3.766.672.922 1.64.922.97 0 1.625-.938.657-.937.657-3.75 0-2.828-.657-3.75-.656-.937-1.64-.937-.97 0-1.547.828-.735 1.047-.735 3.86zm8.243 5.657v-1.61h1.609v1.61h-1.61zm11.054-1.36v1.36h-7.578q-.015-.516.172-.985.281-.765.922-1.515.64-.75 1.844-1.735 1.86-1.531 2.515-2.422.657-.906.657-1.703 0-.828-.594-1.406t-1.563-.578q-1.015 0-1.625.61-.61.609-.61 1.687l-1.452-.14q.156-1.626 1.125-2.47.969-.843 2.594-.843 1.656 0 2.609.921.969.907.969 2.25 0 .688-.282 1.36-.28.656-.937 1.39-.656.735-2.172 2.016-1.266 1.063-1.625 1.453-.36.375-.594.75h5.625zm2.29 1.36v-1.61h1.609v1.61h-1.61zm3.757-9.954v-1.359h7.406v1.094q-1.093 1.172-2.171 3.11-1.063 1.921-1.657 3.952-.422 1.438-.53 3.157h-1.454q.031-1.36.531-3.266.516-1.922 1.453-3.688.953-1.78 2.032-3h-5.61z"/></g></svg>